<svg width="486" height="136" viewBox="0 0 486 136" fill="none" xmlns="http://www.w3.org/2000/svg">
<path d="M7.3457 3.3916L3.86523 14H1.06152L5.81641 1.20312H7.60059L7.3457 3.3916ZM10.2373 14L6.74805 3.3916L6.4668 1.20312H8.26855L13.0498 14H10.2373ZM10.0791 9.23633V11.3018H3.32031V9.23633H10.0791ZM14.0781 0.5H16.6094V11.8203L16.3545 14H14.0781V0.5ZM22.6299 9.14844V9.33301C22.6299 10.042 22.5537 10.6924 22.4014 11.2842C22.2549 11.876 22.0264 12.3887 21.7158 12.8223C21.4053 13.25 21.0186 13.584 20.5557 13.8242C20.0986 14.0586 19.5596 14.1758 18.9385 14.1758C18.3584 14.1758 17.8545 14.0586 17.4268 13.8242C17.0049 13.5898 16.6504 13.2588 16.3633 12.8311C16.0762 12.4033 15.8447 11.9023 15.6689 11.3281C15.4932 10.7539 15.3613 10.127 15.2734 9.44727V9.04297C15.3613 8.36328 15.4932 7.73633 15.6689 7.16211C15.8447 6.58789 16.0762 6.08691 16.3633 5.65918C16.6504 5.23145 17.0049 4.90039 17.4268 4.66602C17.8486 4.43164 18.3467 4.31445 18.9209 4.31445C19.5479 4.31445 20.0928 4.43457 20.5557 4.6748C21.0244 4.90918 21.4111 5.24316 21.7158 5.67676C22.0264 6.10449 22.2549 6.61426 22.4014 7.20605C22.5537 7.79199 22.6299 8.43945 22.6299 9.14844ZM20.0986 9.33301V9.14844C20.0986 8.76172 20.0693 8.39844 20.0107 8.05859C19.958 7.71289 19.8643 7.41113 19.7295 7.15332C19.5947 6.88965 19.4102 6.68164 19.1758 6.5293C18.9473 6.37695 18.6514 6.30078 18.2881 6.30078C17.9424 6.30078 17.6494 6.35938 17.4092 6.47656C17.1689 6.59375 16.9697 6.75781 16.8115 6.96875C16.6592 7.17969 16.5449 7.43164 16.4688 7.72461C16.3926 8.01172 16.3457 8.32812 16.3281 8.67383V9.8252C16.3457 10.2881 16.4219 10.6982 16.5566 11.0557C16.6973 11.4072 16.9082 11.6855 17.1895 11.8906C17.4766 12.0898 17.8486 12.1895 18.3057 12.1895C18.6631 12.1895 18.959 12.1191 19.1934 11.9785C19.4277 11.8379 19.6094 11.6387 19.7383 11.3809C19.873 11.123 19.9668 10.8213 20.0195 10.4756C20.0723 10.124 20.0986 9.74316 20.0986 9.33301ZM23.7988 9.3418V9.15723C23.7988 8.45996 23.8984 7.81836 24.0977 7.23242C24.2969 6.64062 24.5869 6.12793 24.9678 5.69434C25.3486 5.26074 25.8174 4.92383 26.374 4.68359C26.9307 4.4375 27.5693 4.31445 28.29 4.31445C29.0107 4.31445 29.6523 4.4375 30.2148 4.68359C30.7773 4.92383 31.249 5.26074 31.6299 5.69434C32.0166 6.12793 32.3096 6.64062 32.5088 7.23242C32.708 7.81836 32.8076 8.45996 32.8076 9.15723V9.3418C32.8076 10.0332 32.708 10.6748 32.5088 11.2666C32.3096 11.8525 32.0166 12.3652 31.6299 12.8047C31.249 13.2383 30.7803 13.5752 30.2236 13.8154C29.667 14.0557 29.0283 14.1758 28.3076 14.1758C27.5869 14.1758 26.9453 14.0557 26.3828 13.8154C25.8262 13.5752 25.3545 13.2383 24.9678 12.8047C24.5869 12.3652 24.2969 11.8525 24.0977 11.2666C23.8984 10.6748 23.7988 10.0332 23.7988 9.3418ZM26.3301 9.15723V9.3418C26.3301 9.74023 26.3652 10.1123 26.4355 10.458C26.5059 10.8037 26.6172 11.1084 26.7695 11.3721C26.9277 11.6299 27.1328 11.832 27.3848 11.9785C27.6367 12.125 27.9443 12.1982 28.3076 12.1982C28.6592 12.1982 28.9609 12.125 29.2129 11.9785C29.4648 11.832 29.667 11.6299 29.8193 11.3721C29.9717 11.1084 30.083 10.8037 30.1533 10.458C30.2295 10.1123 30.2676 9.74023 30.2676 9.3418V9.15723C30.2676 8.77051 30.2295 8.40723 30.1533 8.06738C30.083 7.72168 29.9688 7.41699 29.8105 7.15332C29.6582 6.88379 29.4561 6.67285 29.2041 6.52051C28.9521 6.36816 28.6475 6.29199 28.29 6.29199C27.9326 6.29199 27.6279 6.36816 27.376 6.52051C27.1299 6.67285 26.9277 6.88379 26.7695 7.15332C26.6172 7.41699 26.5059 7.72168 26.4355 8.06738C26.3652 8.40723 26.3301 8.77051 26.3301 9.15723ZM39.9883 11.7236V4.49023H42.5195V14H40.1377L39.9883 11.7236ZM40.2695 9.77246L41.0166 9.75488C41.0166 10.3877 40.9434 10.9766 40.7969 11.5215C40.6504 12.0605 40.4307 12.5293 40.1377 12.9277C39.8447 13.3203 39.4756 13.6279 39.0303 13.8506C38.585 14.0674 38.0605 14.1758 37.457 14.1758C36.9941 14.1758 36.5664 14.1113 36.1738 13.9824C35.7871 13.8477 35.4531 13.6396 35.1719 13.3584C34.8965 13.0713 34.6797 12.7051 34.5215 12.2598C34.3691 11.8086 34.293 11.2666 34.293 10.6338V4.49023H36.8242V10.6514C36.8242 10.9326 36.8564 11.1699 36.9209 11.3633C36.9912 11.5566 37.0879 11.7148 37.2109 11.8379C37.334 11.9609 37.4775 12.0488 37.6416 12.1016C37.8115 12.1543 37.999 12.1807 38.2041 12.1807C38.7256 12.1807 39.1357 12.0752 39.4346 11.8643C39.7393 11.6533 39.9531 11.3662 40.0762 11.0029C40.2051 10.6338 40.2695 10.2236 40.2695 9.77246ZM49.1113 4.49023V6.2832H43.5742V4.49023H49.1113ZM44.9453 2.14355H47.4766V11.1348C47.4766 11.4102 47.5117 11.6211 47.582 11.7676C47.6582 11.9141 47.7695 12.0166 47.916 12.0752C48.0625 12.1279 48.2471 12.1543 48.4697 12.1543C48.6279 12.1543 48.7686 12.1484 48.8916 12.1367C49.0205 12.1191 49.1289 12.1016 49.2168 12.084L49.2256 13.9473C49.0088 14.0176 48.7744 14.0732 48.5225 14.1143C48.2705 14.1553 47.9922 14.1758 47.6875 14.1758C47.1309 14.1758 46.6445 14.085 46.2285 13.9033C45.8184 13.7158 45.502 13.417 45.2793 13.0068C45.0566 12.5967 44.9453 12.0576 44.9453 11.3896V2.14355Z" fill="white"/>
<path d="M400.729 11.9434V14H393.918V11.9434H400.729ZM394.779 1.20312V14H392.143V1.20312H394.779ZM399.842 6.41504V8.41895H393.918V6.41504H399.842ZM400.721 1.20312V3.26855H393.918V1.20312H400.721ZM404.148 4.49023L405.722 7.38184L407.339 4.49023H410.037L407.348 9.13965L410.16 14H407.453L405.739 10.9414L404.025 14H401.318L404.131 9.13965L401.441 4.49023H404.148ZM413.799 6.31836V17.6562H411.268V4.49023H413.614L413.799 6.31836ZM419.819 9.13965V9.32422C419.819 10.0156 419.737 10.6572 419.573 11.249C419.415 11.8408 419.181 12.3564 418.87 12.7959C418.56 13.2295 418.173 13.5693 417.71 13.8154C417.253 14.0557 416.726 14.1758 416.128 14.1758C415.548 14.1758 415.044 14.0586 414.616 13.8242C414.188 13.5898 413.828 13.2617 413.535 12.8398C413.248 12.4121 413.017 11.917 412.841 11.3545C412.665 10.792 412.53 10.1885 412.437 9.54395V9.06055C412.53 8.36914 412.665 7.73633 412.841 7.16211C413.017 6.58203 413.248 6.08105 413.535 5.65918C413.828 5.23145 414.186 4.90039 414.607 4.66602C415.035 4.43164 415.536 4.31445 416.11 4.31445C416.714 4.31445 417.244 4.42871 417.701 4.65723C418.164 4.88574 418.551 5.21387 418.861 5.6416C419.178 6.06934 419.415 6.5791 419.573 7.1709C419.737 7.7627 419.819 8.41895 419.819 9.13965ZM417.279 9.32422V9.13965C417.279 8.73535 417.244 8.36328 417.174 8.02344C417.109 7.67773 417.004 7.37598 416.857 7.11816C416.717 6.86035 416.529 6.66113 416.295 6.52051C416.066 6.37402 415.788 6.30078 415.46 6.30078C415.114 6.30078 414.818 6.35645 414.572 6.46777C414.332 6.5791 414.136 6.74023 413.983 6.95117C413.831 7.16211 413.717 7.41406 413.641 7.70703C413.564 8 413.518 8.33105 413.5 8.7002V9.92188C413.529 10.3555 413.611 10.7451 413.746 11.0908C413.881 11.4307 414.089 11.7002 414.37 11.8994C414.651 12.0986 415.021 12.1982 415.478 12.1982C415.812 12.1982 416.093 12.125 416.321 11.9785C416.55 11.8262 416.734 11.6182 416.875 11.3545C417.021 11.0908 417.124 10.7861 417.183 10.4404C417.247 10.0947 417.279 9.72266 417.279 9.32422ZM425.77 14.1758C425.031 14.1758 424.369 14.0586 423.783 13.8242C423.197 13.584 422.699 13.2529 422.289 12.8311C421.885 12.4092 421.574 11.9199 421.357 11.3633C421.141 10.8008 421.032 10.2031 421.032 9.57031V9.21875C421.032 8.49805 421.135 7.83887 421.34 7.24121C421.545 6.64355 421.838 6.125 422.219 5.68555C422.605 5.24609 423.074 4.90918 423.625 4.6748C424.176 4.43457 424.797 4.31445 425.488 4.31445C426.162 4.31445 426.76 4.42578 427.281 4.64844C427.803 4.87109 428.239 5.1875 428.591 5.59766C428.948 6.00781 429.218 6.5 429.399 7.07422C429.581 7.64258 429.672 8.27539 429.672 8.97266V10.0273H422.113V8.33984H427.185V8.14648C427.185 7.79492 427.12 7.48145 426.991 7.20605C426.868 6.9248 426.681 6.70215 426.429 6.53809C426.177 6.37402 425.854 6.29199 425.462 6.29199C425.128 6.29199 424.841 6.36523 424.601 6.51172C424.36 6.6582 424.164 6.86328 424.012 7.12695C423.865 7.39062 423.754 7.70117 423.678 8.05859C423.607 8.41016 423.572 8.79688 423.572 9.21875V9.57031C423.572 9.95117 423.625 10.3027 423.73 10.625C423.842 10.9473 423.997 11.2256 424.196 11.46C424.401 11.6943 424.647 11.876 424.935 12.0049C425.228 12.1338 425.559 12.1982 425.928 12.1982C426.385 12.1982 426.81 12.1104 427.202 11.9346C427.601 11.7529 427.943 11.4805 428.23 11.1172L429.461 12.4531C429.262 12.7402 428.989 13.0156 428.644 13.2793C428.304 13.543 427.894 13.7598 427.413 13.9297C426.933 14.0938 426.385 14.1758 425.77 14.1758ZM433.645 6.56445V14H431.113V4.49023H433.495L433.645 6.56445ZM436.51 4.42871L436.466 6.77539C436.343 6.75781 436.193 6.74316 436.018 6.73145C435.848 6.71387 435.692 6.70508 435.552 6.70508C435.194 6.70508 434.884 6.75195 434.62 6.8457C434.362 6.93359 434.146 7.06543 433.97 7.24121C433.8 7.41699 433.671 7.63086 433.583 7.88281C433.501 8.13477 433.454 8.42188 433.442 8.74414L432.933 8.58594C432.933 7.9707 432.994 7.40527 433.117 6.88965C433.24 6.36816 433.419 5.91406 433.653 5.52734C433.894 5.14062 434.187 4.8418 434.532 4.63086C434.878 4.41992 435.273 4.31445 435.719 4.31445C435.859 4.31445 436.003 4.32617 436.149 4.34961C436.296 4.36719 436.416 4.39355 436.51 4.42871ZM440.377 4.49023V14H437.837V4.49023H440.377ZM437.679 2.01172C437.679 1.64258 437.808 1.33789 438.065 1.09766C438.323 0.857422 438.669 0.737305 439.103 0.737305C439.53 0.737305 439.873 0.857422 440.131 1.09766C440.395 1.33789 440.526 1.64258 440.526 2.01172C440.526 2.38086 440.395 2.68555 440.131 2.92578C439.873 3.16602 439.53 3.28613 439.103 3.28613C438.669 3.28613 438.323 3.16602 438.065 2.92578C437.808 2.68555 437.679 2.38086 437.679 2.01172ZM446.846 14.1758C446.107 14.1758 445.445 14.0586 444.859 13.8242C444.273 13.584 443.775 13.2529 443.365 12.8311C442.961 12.4092 442.65 11.9199 442.434 11.3633C442.217 10.8008 442.108 10.2031 442.108 9.57031V9.21875C442.108 8.49805 442.211 7.83887 442.416 7.24121C442.621 6.64355 442.914 6.125 443.295 5.68555C443.682 5.24609 444.15 4.90918 444.701 4.6748C445.252 4.43457 445.873 4.31445 446.564 4.31445C447.238 4.31445 447.836 4.42578 448.357 4.64844C448.879 4.87109 449.315 5.1875 449.667 5.59766C450.024 6.00781 450.294 6.5 450.476 7.07422C450.657 7.64258 450.748 8.27539 450.748 8.97266V10.0273H443.189V8.33984H448.261V8.14648C448.261 7.79492 448.196 7.48145 448.067 7.20605C447.944 6.9248 447.757 6.70215 447.505 6.53809C447.253 6.37402 446.931 6.29199 446.538 6.29199C446.204 6.29199 445.917 6.36523 445.677 6.51172C445.437 6.6582 445.24 6.86328 445.088 7.12695C444.941 7.39062 444.83 7.70117 444.754 8.05859C444.684 8.41016 444.648 8.79688 444.648 9.21875V9.57031C444.648 9.95117 444.701 10.3027 444.807 10.625C444.918 10.9473 445.073 11.2256 445.272 11.46C445.478 11.6943 445.724 11.876 446.011 12.0049C446.304 12.1338 446.635 12.1982 447.004 12.1982C447.461 12.1982 447.886 12.1104 448.278 11.9346C448.677 11.7529 449.02 11.4805 449.307 11.1172L450.537 12.4531C450.338 12.7402 450.065 13.0156 449.72 13.2793C449.38 13.543 448.97 13.7598 448.489 13.9297C448.009 14.0938 447.461 14.1758 446.846 14.1758ZM454.668 6.52051V14H452.137V4.49023H454.51L454.668 6.52051ZM454.299 8.91113H453.613C453.613 8.20801 453.704 7.5752 453.886 7.0127C454.067 6.44434 454.322 5.96094 454.65 5.5625C454.979 5.1582 455.368 4.85059 455.819 4.63965C456.276 4.42285 456.786 4.31445 457.349 4.31445C457.794 4.31445 458.201 4.37891 458.57 4.50781C458.939 4.63672 459.256 4.8418 459.52 5.12305C459.789 5.4043 459.994 5.77637 460.135 6.23926C460.281 6.70215 460.354 7.26758 460.354 7.93555V14H457.806V7.92676C457.806 7.50488 457.747 7.17676 457.63 6.94238C457.513 6.70801 457.34 6.54395 457.111 6.4502C456.889 6.35059 456.613 6.30078 456.285 6.30078C455.945 6.30078 455.649 6.36816 455.397 6.50293C455.151 6.6377 454.946 6.8252 454.782 7.06543C454.624 7.2998 454.504 7.5752 454.422 7.8916C454.34 8.20801 454.299 8.54785 454.299 8.91113ZM466.208 12.1982C466.519 12.1982 466.794 12.1396 467.034 12.0225C467.274 11.8994 467.462 11.7295 467.597 11.5127C467.737 11.29 467.811 11.0293 467.816 10.7305H470.198C470.192 11.3984 470.014 11.9932 469.662 12.5146C469.311 13.0303 468.839 13.4375 468.247 13.7363C467.655 14.0293 466.993 14.1758 466.261 14.1758C465.522 14.1758 464.878 14.0527 464.327 13.8066C463.782 13.5605 463.328 13.2207 462.965 12.7871C462.602 12.3477 462.329 11.8379 462.147 11.2578C461.966 10.6719 461.875 10.0449 461.875 9.37695V9.12207C461.875 8.44824 461.966 7.82129 462.147 7.24121C462.329 6.65527 462.602 6.14551 462.965 5.71191C463.328 5.27246 463.782 4.92969 464.327 4.68359C464.872 4.4375 465.511 4.31445 466.243 4.31445C467.022 4.31445 467.705 4.46387 468.291 4.7627C468.883 5.06152 469.346 5.48926 469.68 6.0459C470.02 6.59668 470.192 7.25 470.198 8.00586H467.816C467.811 7.68945 467.743 7.40234 467.614 7.14453C467.491 6.88672 467.31 6.68164 467.069 6.5293C466.835 6.37109 466.545 6.29199 466.199 6.29199C465.83 6.29199 465.528 6.37109 465.294 6.5293C465.06 6.68164 464.878 6.89258 464.749 7.16211C464.62 7.42578 464.529 7.72754 464.477 8.06738C464.43 8.40137 464.406 8.75293 464.406 9.12207V9.37695C464.406 9.74609 464.43 10.1006 464.477 10.4404C464.523 10.7803 464.611 11.082 464.74 11.3457C464.875 11.6094 465.06 11.8174 465.294 11.9697C465.528 12.1221 465.833 12.1982 466.208 12.1982ZM476.043 14.1758C475.305 14.1758 474.643 14.0586 474.057 13.8242C473.471 13.584 472.973 13.2529 472.562 12.8311C472.158 12.4092 471.848 11.9199 471.631 11.3633C471.414 10.8008 471.306 10.2031 471.306 9.57031V9.21875C471.306 8.49805 471.408 7.83887 471.613 7.24121C471.818 6.64355 472.111 6.125 472.492 5.68555C472.879 5.24609 473.348 4.90918 473.898 4.6748C474.449 4.43457 475.07 4.31445 475.762 4.31445C476.436 4.31445 477.033 4.42578 477.555 4.64844C478.076 4.87109 478.513 5.1875 478.864 5.59766C479.222 6.00781 479.491 6.5 479.673 7.07422C479.854 7.64258 479.945 8.27539 479.945 8.97266V10.0273H472.387V8.33984H477.458V8.14648C477.458 7.79492 477.394 7.48145 477.265 7.20605C477.142 6.9248 476.954 6.70215 476.702 6.53809C476.45 6.37402 476.128 6.29199 475.735 6.29199C475.401 6.29199 475.114 6.36523 474.874 6.51172C474.634 6.6582 474.438 6.86328 474.285 7.12695C474.139 7.39062 474.027 7.70117 473.951 8.05859C473.881 8.41016 473.846 8.79688 473.846 9.21875V9.57031C473.846 9.95117 473.898 10.3027 474.004 10.625C474.115 10.9473 474.271 11.2256 474.47 11.46C474.675 11.6943 474.921 11.876 475.208 12.0049C475.501 12.1338 475.832 12.1982 476.201 12.1982C476.658 12.1982 477.083 12.1104 477.476 11.9346C477.874 11.7529 478.217 11.4805 478.504 11.1172L479.734 12.4531C479.535 12.7402 479.263 13.0156 478.917 13.2793C478.577 13.543 478.167 13.7598 477.687 13.9297C477.206 14.0938 476.658 14.1758 476.043 14.1758Z" fill="white"/>
<path d="M202.152 66.3838H198.865L198.848 64.5732H201.607C202.094 64.5732 202.492 64.5117 202.803 64.3887C203.113 64.2598 203.345 64.0752 203.497 63.835C203.655 63.5889 203.734 63.29 203.734 62.9385C203.734 62.54 203.658 62.2178 203.506 61.9717C203.359 61.7256 203.128 61.5469 202.812 61.4355C202.501 61.3242 202.1 61.2686 201.607 61.2686H199.779V72H197.143V59.2031H201.607C202.352 59.2031 203.017 59.2734 203.603 59.4141C204.194 59.5547 204.695 59.7686 205.105 60.0557C205.516 60.3428 205.829 60.7061 206.046 61.1455C206.263 61.5791 206.371 62.0947 206.371 62.6924C206.371 63.2197 206.251 63.7061 206.011 64.1514C205.776 64.5967 205.404 64.96 204.895 65.2412C204.391 65.5225 203.731 65.6777 202.917 65.707L202.152 66.3838ZM202.038 72H198.145L199.173 69.9434H202.038C202.501 69.9434 202.879 69.8701 203.172 69.7236C203.465 69.5713 203.682 69.3662 203.822 69.1084C203.963 68.8506 204.033 68.5547 204.033 68.2207C204.033 67.8457 203.969 67.5205 203.84 67.2451C203.717 66.9697 203.518 66.7588 203.242 66.6123C202.967 66.46 202.604 66.3838 202.152 66.3838H199.612L199.63 64.5732H202.794L203.4 65.2852C204.18 65.2734 204.807 65.4111 205.281 65.6982C205.762 65.9795 206.11 66.3457 206.327 66.7969C206.55 67.248 206.661 67.7314 206.661 68.2471C206.661 69.0674 206.482 69.7588 206.125 70.3213C205.768 70.8779 205.243 71.2969 204.552 71.5781C203.866 71.8594 203.028 72 202.038 72ZM211.152 58.5V72H208.612V58.5H211.152ZM212.84 67.3418V67.1572C212.84 66.46 212.939 65.8184 213.139 65.2324C213.338 64.6406 213.628 64.1279 214.009 63.6943C214.39 63.2607 214.858 62.9238 215.415 62.6836C215.972 62.4375 216.61 62.3145 217.331 62.3145C218.052 62.3145 218.693 62.4375 219.256 62.6836C219.818 62.9238 220.29 63.2607 220.671 63.6943C221.058 64.1279 221.351 64.6406 221.55 65.2324C221.749 65.8184 221.849 66.46 221.849 67.1572V67.3418C221.849 68.0332 221.749 68.6748 221.55 69.2666C221.351 69.8525 221.058 70.3652 220.671 70.8047C220.29 71.2383 219.821 71.5752 219.265 71.8154C218.708 72.0557 218.069 72.1758 217.349 72.1758C216.628 72.1758 215.986 72.0557 215.424 71.8154C214.867 71.5752 214.396 71.2383 214.009 70.8047C213.628 70.3652 213.338 69.8525 213.139 69.2666C212.939 68.6748 212.84 68.0332 212.84 67.3418ZM215.371 67.1572V67.3418C215.371 67.7402 215.406 68.1123 215.477 68.458C215.547 68.8037 215.658 69.1084 215.811 69.3721C215.969 69.6299 216.174 69.832 216.426 69.9785C216.678 70.125 216.985 70.1982 217.349 70.1982C217.7 70.1982 218.002 70.125 218.254 69.9785C218.506 69.832 218.708 69.6299 218.86 69.3721C219.013 69.1084 219.124 68.8037 219.194 68.458C219.271 68.1123 219.309 67.7402 219.309 67.3418V67.1572C219.309 66.7705 219.271 66.4072 219.194 66.0674C219.124 65.7217 219.01 65.417 218.852 65.1533C218.699 64.8838 218.497 64.6729 218.245 64.5205C217.993 64.3682 217.688 64.292 217.331 64.292C216.974 64.292 216.669 64.3682 216.417 64.5205C216.171 64.6729 215.969 64.8838 215.811 65.1533C215.658 65.417 215.547 65.7217 215.477 66.0674C215.406 66.4072 215.371 66.7705 215.371 67.1572ZM229.425 62.4902H231.719V71.6836C231.719 72.5508 231.525 73.2861 231.139 73.8896C230.758 74.499 230.225 74.959 229.539 75.2695C228.854 75.5859 228.057 75.7441 227.148 75.7441C226.75 75.7441 226.328 75.6914 225.883 75.5859C225.443 75.4805 225.021 75.3164 224.617 75.0938C224.219 74.8711 223.885 74.5898 223.615 74.25L224.731 72.7559C225.024 73.0957 225.364 73.3594 225.751 73.5469C226.138 73.7402 226.565 73.8369 227.034 73.8369C227.491 73.8369 227.878 73.752 228.194 73.582C228.511 73.418 228.754 73.1748 228.924 72.8525C229.094 72.5361 229.179 72.1523 229.179 71.7012V64.6875L229.425 62.4902ZM223.026 67.3594V67.1748C223.026 66.4482 223.114 65.7891 223.29 65.1973C223.472 64.5996 223.727 64.0869 224.055 63.6592C224.389 63.2314 224.793 62.9004 225.268 62.666C225.742 62.4316 226.278 62.3145 226.876 62.3145C227.509 62.3145 228.039 62.4316 228.467 62.666C228.895 62.9004 229.246 63.2344 229.521 63.668C229.797 64.0957 230.011 64.6025 230.163 65.1885C230.321 65.7686 230.444 66.4043 230.532 67.0957V67.5C230.444 68.1621 230.312 68.7773 230.137 69.3457C229.961 69.9141 229.729 70.4121 229.442 70.8398C229.155 71.2617 228.798 71.5898 228.37 71.8242C227.948 72.0586 227.444 72.1758 226.858 72.1758C226.272 72.1758 225.742 72.0557 225.268 71.8154C224.799 71.5752 224.397 71.2383 224.063 70.8047C223.729 70.3711 223.472 69.8613 223.29 69.2754C223.114 68.6895 223.026 68.0508 223.026 67.3594ZM225.558 67.1748V67.3594C225.558 67.752 225.596 68.1182 225.672 68.458C225.748 68.7979 225.865 69.0996 226.023 69.3633C226.188 69.6211 226.39 69.8232 226.63 69.9697C226.876 70.1104 227.166 70.1807 227.5 70.1807C227.963 70.1807 228.341 70.084 228.634 69.8906C228.927 69.6914 229.146 69.4189 229.293 69.0732C229.439 68.7275 229.524 68.3291 229.548 67.8779V66.7266C229.536 66.3574 229.486 66.0264 229.398 65.7334C229.311 65.4346 229.188 65.1797 229.029 64.9688C228.871 64.7578 228.666 64.5938 228.414 64.4766C228.162 64.3594 227.863 64.3008 227.518 64.3008C227.184 64.3008 226.894 64.377 226.647 64.5293C226.407 64.6758 226.205 64.8779 226.041 65.1357C225.883 65.3936 225.763 65.6982 225.681 66.0498C225.599 66.3955 225.558 66.7705 225.558 67.1748Z" fill="white"/>
<path d="M6.07129 130H3.28516L3.30273 127.943H6.07129C6.7627 127.943 7.3457 127.788 7.82031 127.478C8.29492 127.161 8.65234 126.701 8.89258 126.098C9.13867 125.494 9.26172 124.765 9.26172 123.909V123.285C9.26172 122.629 9.19141 122.052 9.05078 121.554C8.91602 121.056 8.71387 120.637 8.44434 120.297C8.1748 119.957 7.84375 119.702 7.45117 119.532C7.05859 119.356 6.60742 119.269 6.09766 119.269H3.23242V117.203H6.09766C6.95312 117.203 7.73535 117.35 8.44434 117.643C9.15918 117.93 9.77734 118.343 10.2988 118.882C10.8203 119.421 11.2217 120.065 11.5029 120.815C11.79 121.56 11.9336 122.389 11.9336 123.303V123.909C11.9336 124.817 11.79 125.646 11.5029 126.396C11.2217 127.146 10.8203 127.791 10.2988 128.33C9.7832 128.863 9.16504 129.276 8.44434 129.569C7.72949 129.856 6.93848 130 6.07129 130ZM4.7793 117.203V130H2.14258V117.203H4.7793ZM16.2227 122.564V130H13.6914V120.49H16.0732L16.2227 122.564ZM19.0879 120.429L19.0439 122.775C18.9209 122.758 18.7715 122.743 18.5957 122.731C18.4258 122.714 18.2705 122.705 18.1299 122.705C17.7725 122.705 17.4619 122.752 17.1982 122.846C16.9404 122.934 16.7236 123.065 16.5479 123.241C16.3779 123.417 16.249 123.631 16.1611 123.883C16.0791 124.135 16.0322 124.422 16.0205 124.744L15.5107 124.586C15.5107 123.971 15.5723 123.405 15.6953 122.89C15.8184 122.368 15.9971 121.914 16.2314 121.527C16.4717 121.141 16.7646 120.842 17.1104 120.631C17.4561 120.42 17.8516 120.314 18.2969 120.314C18.4375 120.314 18.5811 120.326 18.7275 120.35C18.874 120.367 18.9941 120.394 19.0879 120.429ZM22.9551 120.49V130H20.415V120.49H22.9551ZM20.2568 118.012C20.2568 117.643 20.3857 117.338 20.6436 117.098C20.9014 116.857 21.2471 116.737 21.6807 116.737C22.1084 116.737 22.4512 116.857 22.709 117.098C22.9727 117.338 23.1045 117.643 23.1045 118.012C23.1045 118.381 22.9727 118.686 22.709 118.926C22.4512 119.166 22.1084 119.286 21.6807 119.286C21.2471 119.286 20.9014 119.166 20.6436 118.926C20.3857 118.686 20.2568 118.381 20.2568 118.012ZM25.0469 116.5H27.5781V127.82L27.3232 130H25.0469V116.5ZM33.5986 125.148V125.333C33.5986 126.042 33.5225 126.692 33.3701 127.284C33.2236 127.876 32.9951 128.389 32.6846 128.822C32.374 129.25 31.9873 129.584 31.5244 129.824C31.0674 130.059 30.5283 130.176 29.9072 130.176C29.3271 130.176 28.8232 130.059 28.3955 129.824C27.9736 129.59 27.6191 129.259 27.332 128.831C27.0449 128.403 26.8135 127.902 26.6377 127.328C26.4619 126.754 26.3301 126.127 26.2422 125.447V125.043C26.3301 124.363 26.4619 123.736 26.6377 123.162C26.8135 122.588 27.0449 122.087 27.332 121.659C27.6191 121.231 27.9736 120.9 28.3955 120.666C28.8174 120.432 29.3154 120.314 29.8896 120.314C30.5166 120.314 31.0615 120.435 31.5244 120.675C31.9932 120.909 32.3799 121.243 32.6846 121.677C32.9951 122.104 33.2236 122.614 33.3701 123.206C33.5225 123.792 33.5986 124.439 33.5986 125.148ZM31.0674 125.333V125.148C31.0674 124.762 31.0381 124.398 30.9795 124.059C30.9268 123.713 30.833 123.411 30.6982 123.153C30.5635 122.89 30.3789 122.682 30.1445 122.529C29.916 122.377 29.6201 122.301 29.2568 122.301C28.9111 122.301 28.6182 122.359 28.3779 122.477C28.1377 122.594 27.9385 122.758 27.7803 122.969C27.6279 123.18 27.5137 123.432 27.4375 123.725C27.3613 124.012 27.3145 124.328 27.2969 124.674V125.825C27.3145 126.288 27.3906 126.698 27.5254 127.056C27.666 127.407 27.877 127.686 28.1582 127.891C28.4453 128.09 28.8174 128.189 29.2744 128.189C29.6318 128.189 29.9277 128.119 30.1621 127.979C30.3965 127.838 30.5781 127.639 30.707 127.381C30.8418 127.123 30.9355 126.821 30.9883 126.476C31.041 126.124 31.0674 125.743 31.0674 125.333ZM35.1719 116.5H37.7031V127.82L37.4482 130H35.1719V116.5ZM43.7236 125.148V125.333C43.7236 126.042 43.6475 126.692 43.4951 127.284C43.3486 127.876 43.1201 128.389 42.8096 128.822C42.499 129.25 42.1123 129.584 41.6494 129.824C41.1924 130.059 40.6533 130.176 40.0322 130.176C39.4521 130.176 38.9482 130.059 38.5205 129.824C38.0986 129.59 37.7441 129.259 37.457 128.831C37.1699 128.403 36.9385 127.902 36.7627 127.328C36.5869 126.754 36.4551 126.127 36.3672 125.447V125.043C36.4551 124.363 36.5869 123.736 36.7627 123.162C36.9385 122.588 37.1699 122.087 37.457 121.659C37.7441 121.231 38.0986 120.9 38.5205 120.666C38.9424 120.432 39.4404 120.314 40.0146 120.314C40.6416 120.314 41.1865 120.435 41.6494 120.675C42.1182 120.909 42.5049 121.243 42.8096 121.677C43.1201 122.104 43.3486 122.614 43.4951 123.206C43.6475 123.792 43.7236 124.439 43.7236 125.148ZM41.1924 125.333V125.148C41.1924 124.762 41.1631 124.398 41.1045 124.059C41.0518 123.713 40.958 123.411 40.8232 123.153C40.6885 122.89 40.5039 122.682 40.2695 122.529C40.041 122.377 39.7451 122.301 39.3818 122.301C39.0361 122.301 38.7432 122.359 38.5029 122.477C38.2627 122.594 38.0635 122.758 37.9053 122.969C37.7529 123.18 37.6387 123.432 37.5625 123.725C37.4863 124.012 37.4395 124.328 37.4219 124.674V125.825C37.4395 126.288 37.5156 126.698 37.6504 127.056C37.791 127.407 38.002 127.686 38.2832 127.891C38.5703 128.09 38.9424 128.189 39.3994 128.189C39.7568 128.189 40.0527 128.119 40.2871 127.979C40.5215 127.838 40.7031 127.639 40.832 127.381C40.9668 127.123 41.0605 126.821 41.1133 126.476C41.166 126.124 41.1924 125.743 41.1924 125.333ZM45.2969 116.5H47.8281V127.82L47.5732 130H45.2969V116.5ZM53.8486 125.148V125.333C53.8486 126.042 53.7725 126.692 53.6201 127.284C53.4736 127.876 53.2451 128.389 52.9346 128.822C52.624 129.25 52.2373 129.584 51.7744 129.824C51.3174 130.059 50.7783 130.176 50.1572 130.176C49.5771 130.176 49.0732 130.059 48.6455 129.824C48.2236 129.59 47.8691 129.259 47.582 128.831C47.2949 128.403 47.0635 127.902 46.8877 127.328C46.7119 126.754 46.5801 126.127 46.4922 125.447V125.043C46.5801 124.363 46.7119 123.736 46.8877 123.162C47.0635 122.588 47.2949 122.087 47.582 121.659C47.8691 121.231 48.2236 120.9 48.6455 120.666C49.0674 120.432 49.5654 120.314 50.1396 120.314C50.7666 120.314 51.3115 120.435 51.7744 120.675C52.2432 120.909 52.6299 121.243 52.9346 121.677C53.2451 122.104 53.4736 122.614 53.6201 123.206C53.7725 123.792 53.8486 124.439 53.8486 125.148ZM51.3174 125.333V125.148C51.3174 124.762 51.2881 124.398 51.2295 124.059C51.1768 123.713 51.083 123.411 50.9482 123.153C50.8135 122.89 50.6289 122.682 50.3945 122.529C50.166 122.377 49.8701 122.301 49.5068 122.301C49.1611 122.301 48.8682 122.359 48.6279 122.477C48.3877 122.594 48.1885 122.758 48.0303 122.969C47.8779 123.18 47.7637 123.432 47.6875 123.725C47.6113 124.012 47.5645 124.328 47.5469 124.674V125.825C47.5645 126.288 47.6406 126.698 47.7754 127.056C47.916 127.407 48.127 127.686 48.4082 127.891C48.6953 128.09 49.0674 128.189 49.5244 128.189C49.8818 128.189 50.1777 128.119 50.4121 127.979C50.6465 127.838 50.8281 127.639 50.957 127.381C51.0918 127.123 51.1855 126.821 51.2383 126.476C51.291 126.124 51.3174 125.743 51.3174 125.333ZM58.0938 116.5V130H55.5537V116.5H58.0938ZM64.5625 130.176C63.8242 130.176 63.1621 130.059 62.5762 129.824C61.9902 129.584 61.4922 129.253 61.082 128.831C60.6777 128.409 60.3672 127.92 60.1504 127.363C59.9336 126.801 59.8252 126.203 59.8252 125.57V125.219C59.8252 124.498 59.9277 123.839 60.1328 123.241C60.3379 122.644 60.6309 122.125 61.0117 121.686C61.3984 121.246 61.8672 120.909 62.418 120.675C62.9688 120.435 63.5898 120.314 64.2812 120.314C64.9551 120.314 65.5527 120.426 66.0742 120.648C66.5957 120.871 67.0322 121.188 67.3838 121.598C67.7412 122.008 68.0107 122.5 68.1924 123.074C68.374 123.643 68.4648 124.275 68.4648 124.973V126.027H60.9062V124.34H65.9775V124.146C65.9775 123.795 65.9131 123.481 65.7842 123.206C65.6611 122.925 65.4736 122.702 65.2217 122.538C64.9697 122.374 64.6475 122.292 64.2549 122.292C63.9209 122.292 63.6338 122.365 63.3936 122.512C63.1533 122.658 62.957 122.863 62.8047 123.127C62.6582 123.391 62.5469 123.701 62.4707 124.059C62.4004 124.41 62.3652 124.797 62.3652 125.219V125.57C62.3652 125.951 62.418 126.303 62.5234 126.625C62.6348 126.947 62.79 127.226 62.9893 127.46C63.1943 127.694 63.4404 127.876 63.7275 128.005C64.0205 128.134 64.3516 128.198 64.7207 128.198C65.1777 128.198 65.6025 128.11 65.9951 127.935C66.3936 127.753 66.7363 127.48 67.0234 127.117L68.2539 128.453C68.0547 128.74 67.7822 129.016 67.4365 129.279C67.0967 129.543 66.6865 129.76 66.2061 129.93C65.7256 130.094 65.1777 130.176 64.5625 130.176Z" fill="white"/>
<path d="M397.864 117.203V130H395.236V117.203H397.864ZM401.802 117.203V119.269H391.36V117.203H401.802ZM405.405 127.539L407.383 120.49H408.991L408.473 123.259L406.495 130H405.15L405.405 127.539ZM404.403 120.49L405.818 127.53L405.95 130H404.368L401.96 120.49H404.403ZM410.802 127.416L412.182 120.49H414.634L412.226 130H410.652L410.802 127.416ZM409.211 120.49L411.18 127.486L411.452 130H410.099L408.121 123.268L407.62 120.49H409.211ZM418.58 120.49V130H416.04V120.49H418.58ZM415.882 118.012C415.882 117.643 416.011 117.338 416.269 117.098C416.526 116.857 416.872 116.737 417.306 116.737C417.733 116.737 418.076 116.857 418.334 117.098C418.598 117.338 418.729 117.643 418.729 118.012C418.729 118.381 418.598 118.686 418.334 118.926C418.076 119.166 417.733 119.286 417.306 119.286C416.872 119.286 416.526 119.166 416.269 118.926C416.011 118.686 415.882 118.381 415.882 118.012ZM425.33 120.49V122.283H419.793V120.49H425.33ZM421.164 118.144H423.695V127.135C423.695 127.41 423.73 127.621 423.801 127.768C423.877 127.914 423.988 128.017 424.135 128.075C424.281 128.128 424.466 128.154 424.688 128.154C424.847 128.154 424.987 128.148 425.11 128.137C425.239 128.119 425.348 128.102 425.436 128.084L425.444 129.947C425.228 130.018 424.993 130.073 424.741 130.114C424.489 130.155 424.211 130.176 423.906 130.176C423.35 130.176 422.863 130.085 422.447 129.903C422.037 129.716 421.721 129.417 421.498 129.007C421.275 128.597 421.164 128.058 421.164 127.39V118.144ZM431.43 120.49V122.283H425.893V120.49H431.43ZM427.264 118.144H429.795V127.135C429.795 127.41 429.83 127.621 429.9 127.768C429.977 127.914 430.088 128.017 430.234 128.075C430.381 128.128 430.565 128.154 430.788 128.154C430.946 128.154 431.087 128.148 431.21 128.137C431.339 128.119 431.447 128.102 431.535 128.084L431.544 129.947C431.327 130.018 431.093 130.073 430.841 130.114C430.589 130.155 430.311 130.176 430.006 130.176C429.449 130.176 428.963 130.085 428.547 129.903C428.137 129.716 427.82 129.417 427.598 129.007C427.375 128.597 427.264 128.058 427.264 127.39V118.144ZM437.248 130.176C436.51 130.176 435.848 130.059 435.262 129.824C434.676 129.584 434.178 129.253 433.768 128.831C433.363 128.409 433.053 127.92 432.836 127.363C432.619 126.801 432.511 126.203 432.511 125.57V125.219C432.511 124.498 432.613 123.839 432.818 123.241C433.023 122.644 433.316 122.125 433.697 121.686C434.084 121.246 434.553 120.909 435.104 120.675C435.654 120.435 436.275 120.314 436.967 120.314C437.641 120.314 438.238 120.426 438.76 120.648C439.281 120.871 439.718 121.188 440.069 121.598C440.427 122.008 440.696 122.5 440.878 123.074C441.06 123.643 441.15 124.275 441.15 124.973V126.027H433.592V124.34H438.663V124.146C438.663 123.795 438.599 123.481 438.47 123.206C438.347 122.925 438.159 122.702 437.907 122.538C437.655 122.374 437.333 122.292 436.94 122.292C436.606 122.292 436.319 122.365 436.079 122.512C435.839 122.658 435.643 122.863 435.49 123.127C435.344 123.391 435.232 123.701 435.156 124.059C435.086 124.41 435.051 124.797 435.051 125.219V125.57C435.051 125.951 435.104 126.303 435.209 126.625C435.32 126.947 435.476 127.226 435.675 127.46C435.88 127.694 436.126 127.876 436.413 128.005C436.706 128.134 437.037 128.198 437.406 128.198C437.863 128.198 438.288 128.11 438.681 127.935C439.079 127.753 439.422 127.48 439.709 127.117L440.939 128.453C440.74 128.74 440.468 129.016 440.122 129.279C439.782 129.543 439.372 129.76 438.892 129.93C438.411 130.094 437.863 130.176 437.248 130.176ZM445.123 122.564V130H442.592V120.49H444.974L445.123 122.564ZM447.988 120.429L447.944 122.775C447.821 122.758 447.672 122.743 447.496 122.731C447.326 122.714 447.171 122.705 447.03 122.705C446.673 122.705 446.362 122.752 446.099 122.846C445.841 122.934 445.624 123.065 445.448 123.241C445.278 123.417 445.149 123.631 445.062 123.883C444.979 124.135 444.933 124.422 444.921 124.744L444.411 124.586C444.411 123.971 444.473 123.405 444.596 122.89C444.719 122.368 444.897 121.914 445.132 121.527C445.372 121.141 445.665 120.842 446.011 120.631C446.356 120.42 446.752 120.314 447.197 120.314C447.338 120.314 447.481 120.326 447.628 120.35C447.774 120.367 447.895 120.394 447.988 120.429Z" fill="white"/>
<path d="M9.56055 67.7549H12.1885C12.1357 68.6162 11.8984 69.3809 11.4766 70.0488C11.0605 70.7168 10.4775 71.2383 9.72754 71.6133C8.9834 71.9883 8.08691 72.1758 7.03809 72.1758C6.21777 72.1758 5.48242 72.0352 4.83203 71.7539C4.18164 71.4668 3.625 71.0566 3.16211 70.5234C2.70508 69.9902 2.35645 69.3457 2.11621 68.5898C1.87598 67.834 1.75586 66.9873 1.75586 66.0498V65.1621C1.75586 64.2246 1.87891 63.3779 2.125 62.6221C2.37695 61.8604 2.73438 61.2129 3.19727 60.6797C3.66602 60.1465 4.22559 59.7363 4.87598 59.4492C5.52637 59.1621 6.25293 59.0186 7.05566 59.0186C8.12207 59.0186 9.02148 59.2119 9.75391 59.5986C10.4922 59.9854 11.0635 60.5186 11.4678 61.1982C11.8779 61.8779 12.124 62.6514 12.2061 63.5186H9.56934C9.54004 63.0029 9.4375 62.5664 9.26172 62.209C9.08594 61.8457 8.81934 61.5732 8.46191 61.3916C8.11035 61.2041 7.6416 61.1104 7.05566 61.1104C6.61621 61.1104 6.23242 61.1924 5.9043 61.3564C5.57617 61.5205 5.30078 61.7695 5.07812 62.1035C4.85547 62.4375 4.68848 62.8594 4.57715 63.3691C4.47168 63.873 4.41895 64.4648 4.41895 65.1445V66.0498C4.41895 66.7119 4.46875 67.2949 4.56836 67.7988C4.66797 68.2969 4.82031 68.7188 5.02539 69.0645C5.23633 69.4043 5.50586 69.6621 5.83398 69.8379C6.16797 70.0078 6.56934 70.0928 7.03809 70.0928C7.58887 70.0928 8.04297 70.0049 8.40039 69.8291C8.75781 69.6533 9.03027 69.3926 9.21777 69.0469C9.41113 68.7012 9.52539 68.2705 9.56055 67.7549ZM13.3574 67.3418V67.1572C13.3574 66.46 13.457 65.8184 13.6562 65.2324C13.8555 64.6406 14.1455 64.1279 14.5264 63.6943C14.9072 63.2607 15.376 62.9238 15.9326 62.6836C16.4893 62.4375 17.1279 62.3145 17.8486 62.3145C18.5693 62.3145 19.2109 62.4375 19.7734 62.6836C20.3359 62.9238 20.8076 63.2607 21.1885 63.6943C21.5752 64.1279 21.8682 64.6406 22.0674 65.2324C22.2666 65.8184 22.3662 66.46 22.3662 67.1572V67.3418C22.3662 68.0332 22.2666 68.6748 22.0674 69.2666C21.8682 69.8525 21.5752 70.3652 21.1885 70.8047C20.8076 71.2383 20.3389 71.5752 19.7822 71.8154C19.2256 72.0557 18.5869 72.1758 17.8662 72.1758C17.1455 72.1758 16.5039 72.0557 15.9414 71.8154C15.3848 71.5752 14.9131 71.2383 14.5264 70.8047C14.1455 70.3652 13.8555 69.8525 13.6562 69.2666C13.457 68.6748 13.3574 68.0332 13.3574 67.3418ZM15.8887 67.1572V67.3418C15.8887 67.7402 15.9238 68.1123 15.9941 68.458C16.0645 68.8037 16.1758 69.1084 16.3281 69.3721C16.4863 69.6299 16.6914 69.832 16.9434 69.9785C17.1953 70.125 17.5029 70.1982 17.8662 70.1982C18.2178 70.1982 18.5195 70.125 18.7715 69.9785C19.0234 69.832 19.2256 69.6299 19.3779 69.3721C19.5303 69.1084 19.6416 68.8037 19.7119 68.458C19.7881 68.1123 19.8262 67.7402 19.8262 67.3418V67.1572C19.8262 66.7705 19.7881 66.4072 19.7119 66.0674C19.6416 65.7217 19.5273 65.417 19.3691 65.1533C19.2168 64.8838 19.0146 64.6729 18.7627 64.5205C18.5107 64.3682 18.2061 64.292 17.8486 64.292C17.4912 64.292 17.1865 64.3682 16.9346 64.5205C16.6885 64.6729 16.4863 64.8838 16.3281 65.1533C16.1758 65.417 16.0645 65.7217 15.9941 66.0674C15.9238 66.4072 15.8887 66.7705 15.8887 67.1572ZM26.4004 64.5205V72H23.8691V62.4902H26.2422L26.4004 64.5205ZM26.0312 66.9111H25.3457C25.3457 66.208 25.4365 65.5752 25.6182 65.0127C25.7998 64.4443 26.0547 63.9609 26.3828 63.5625C26.7109 63.1582 27.1006 62.8506 27.5518 62.6396C28.0088 62.4229 28.5186 62.3145 29.0811 62.3145C29.5264 62.3145 29.9336 62.3789 30.3027 62.5078C30.6719 62.6367 30.9883 62.8418 31.252 63.123C31.5215 63.4043 31.7266 63.7764 31.8672 64.2393C32.0137 64.7021 32.0869 65.2676 32.0869 65.9355V72H29.5381V65.9268C29.5381 65.5049 29.4795 65.1768 29.3623 64.9424C29.2451 64.708 29.0723 64.5439 28.8438 64.4502C28.6211 64.3506 28.3457 64.3008 28.0176 64.3008C27.6777 64.3008 27.3818 64.3682 27.1299 64.5029C26.8838 64.6377 26.6787 64.8252 26.5146 65.0654C26.3564 65.2998 26.2363 65.5752 26.1543 65.8916C26.0723 66.208 26.0312 66.5479 26.0312 66.9111ZM38.6699 62.4902V64.2832H33.1328V62.4902H38.6699ZM34.5039 60.1436H37.0352V69.1348C37.0352 69.4102 37.0703 69.6211 37.1406 69.7676C37.2168 69.9141 37.3281 70.0166 37.4746 70.0752C37.6211 70.1279 37.8057 70.1543 38.0283 70.1543C38.1865 70.1543 38.3271 70.1484 38.4502 70.1367C38.5791 70.1191 38.6875 70.1016 38.7754 70.084L38.7842 71.9473C38.5674 72.0176 38.333 72.0732 38.0811 72.1143C37.8291 72.1553 37.5508 72.1758 37.2461 72.1758C36.6895 72.1758 36.2031 72.085 35.7871 71.9033C35.377 71.7158 35.0605 71.417 34.8379 71.0068C34.6152 70.5967 34.5039 70.0576 34.5039 69.3896V60.1436ZM45.2441 69.8555V65.6191C45.2441 65.3145 45.1943 65.0537 45.0947 64.8369C44.9951 64.6143 44.8398 64.4414 44.6289 64.3184C44.4238 64.1953 44.1572 64.1338 43.8291 64.1338C43.5479 64.1338 43.3047 64.1836 43.0996 64.2832C42.8945 64.377 42.7363 64.5146 42.625 64.6963C42.5137 64.8721 42.458 65.0801 42.458 65.3203H39.9268C39.9268 64.916 40.0205 64.5322 40.208 64.1689C40.3955 63.8057 40.668 63.4863 41.0254 63.2109C41.3828 62.9297 41.8076 62.71 42.2998 62.5518C42.7979 62.3936 43.3545 62.3145 43.9697 62.3145C44.708 62.3145 45.3643 62.4375 45.9385 62.6836C46.5127 62.9297 46.9639 63.2988 47.292 63.791C47.626 64.2832 47.793 64.8984 47.793 65.6367V69.7061C47.793 70.2275 47.8252 70.6553 47.8896 70.9893C47.9541 71.3174 48.0479 71.6045 48.1709 71.8506V72H45.6133C45.4902 71.7422 45.3965 71.4199 45.332 71.0332C45.2734 70.6406 45.2441 70.248 45.2441 69.8555ZM45.5781 66.208L45.5957 67.6406H44.1807C43.8467 67.6406 43.5566 67.6787 43.3105 67.7549C43.0645 67.8311 42.8623 67.9395 42.7041 68.0801C42.5459 68.2148 42.4287 68.373 42.3525 68.5547C42.2822 68.7363 42.2471 68.9355 42.2471 69.1523C42.2471 69.3691 42.2969 69.5654 42.3965 69.7412C42.4961 69.9111 42.6396 70.0459 42.8271 70.1455C43.0146 70.2393 43.2344 70.2861 43.4863 70.2861C43.8672 70.2861 44.1982 70.21 44.4795 70.0576C44.7607 69.9053 44.9775 69.7178 45.1299 69.4951C45.2881 69.2725 45.3701 69.0615 45.376 68.8623L46.0439 69.9346C45.9502 70.1748 45.8213 70.4238 45.6572 70.6816C45.499 70.9395 45.2969 71.1826 45.0508 71.4111C44.8047 71.6338 44.5088 71.8184 44.1631 71.9648C43.8174 72.1055 43.4072 72.1758 42.9326 72.1758C42.3291 72.1758 41.7812 72.0557 41.2891 71.8154C40.8027 71.5693 40.416 71.2324 40.1289 70.8047C39.8477 70.3711 39.707 69.8789 39.707 69.3281C39.707 68.8301 39.8008 68.3877 39.9883 68.001C40.1758 67.6143 40.4512 67.2891 40.8145 67.0254C41.1836 66.7559 41.6436 66.5537 42.1943 66.4189C42.7451 66.2783 43.3838 66.208 44.1104 66.208H45.5781ZM53.6729 70.1982C53.9834 70.1982 54.2588 70.1396 54.499 70.0225C54.7393 69.8994 54.9268 69.7295 55.0615 69.5127C55.2021 69.29 55.2754 69.0293 55.2812 68.7305H57.6631C57.6572 69.3984 57.4785 69.9932 57.127 70.5146C56.7754 71.0303 56.3037 71.4375 55.7119 71.7363C55.1201 72.0293 54.458 72.1758 53.7256 72.1758C52.9873 72.1758 52.3428 72.0527 51.792 71.8066C51.2471 71.5605 50.793 71.2207 50.4297 70.7871C50.0664 70.3477 49.7939 69.8379 49.6123 69.2578C49.4307 68.6719 49.3398 68.0449 49.3398 67.377V67.1221C49.3398 66.4482 49.4307 65.8213 49.6123 65.2412C49.7939 64.6553 50.0664 64.1455 50.4297 63.7119C50.793 63.2725 51.2471 62.9297 51.792 62.6836C52.3369 62.4375 52.9756 62.3145 53.708 62.3145C54.4873 62.3145 55.1699 62.4639 55.7559 62.7627C56.3477 63.0615 56.8105 63.4893 57.1445 64.0459C57.4844 64.5967 57.6572 65.25 57.6631 66.0059H55.2812C55.2754 65.6895 55.208 65.4023 55.0791 65.1445C54.9561 64.8867 54.7744 64.6816 54.5342 64.5293C54.2998 64.3711 54.0098 64.292 53.6641 64.292C53.2949 64.292 52.9932 64.3711 52.7588 64.5293C52.5244 64.6816 52.3428 64.8926 52.2139 65.1621C52.085 65.4258 51.9941 65.7275 51.9414 66.0674C51.8945 66.4014 51.8711 66.7529 51.8711 67.1221V67.377C51.8711 67.7461 51.8945 68.1006 51.9414 68.4404C51.9883 68.7803 52.0762 69.082 52.2051 69.3457C52.3398 69.6094 52.5244 69.8174 52.7588 69.9697C52.9932 70.1221 53.2979 70.1982 53.6729 70.1982ZM63.7891 62.4902V64.2832H58.252V62.4902H63.7891ZM59.623 60.1436H62.1543V69.1348C62.1543 69.4102 62.1895 69.6211 62.2598 69.7676C62.3359 69.9141 62.4473 70.0166 62.5938 70.0752C62.7402 70.1279 62.9248 70.1543 63.1475 70.1543C63.3057 70.1543 63.4463 70.1484 63.5693 70.1367C63.6982 70.1191 63.8066 70.1016 63.8945 70.084L63.9033 71.9473C63.6865 72.0176 63.4521 72.0732 63.2002 72.1143C62.9482 72.1553 62.6699 72.1758 62.3652 72.1758C61.8086 72.1758 61.3223 72.085 60.9062 71.9033C60.4961 71.7158 60.1797 71.417 59.957 71.0068C59.7344 70.5967 59.623 70.0576 59.623 69.3896V60.1436Z" fill="white"/>
<path d="M199.946 117.203V130H197.318V117.203H199.946ZM204.736 122.521V130H202.205V120.49H204.578L204.736 122.521ZM204.367 124.911H203.682C203.682 124.208 203.772 123.575 203.954 123.013C204.136 122.444 204.391 121.961 204.719 121.562C205.047 121.158 205.437 120.851 205.888 120.64C206.345 120.423 206.854 120.314 207.417 120.314C207.862 120.314 208.27 120.379 208.639 120.508C209.008 120.637 209.324 120.842 209.588 121.123C209.857 121.404 210.062 121.776 210.203 122.239C210.35 122.702 210.423 123.268 210.423 123.936V130H207.874V123.927C207.874 123.505 207.815 123.177 207.698 122.942C207.581 122.708 207.408 122.544 207.18 122.45C206.957 122.351 206.682 122.301 206.354 122.301C206.014 122.301 205.718 122.368 205.466 122.503C205.22 122.638 205.015 122.825 204.851 123.065C204.692 123.3 204.572 123.575 204.49 123.892C204.408 124.208 204.367 124.548 204.367 124.911ZM217.489 127.372C217.489 127.19 217.437 127.026 217.331 126.88C217.226 126.733 217.029 126.599 216.742 126.476C216.461 126.347 216.054 126.229 215.521 126.124C215.04 126.019 214.592 125.887 214.176 125.729C213.766 125.564 213.408 125.368 213.104 125.14C212.805 124.911 212.57 124.642 212.4 124.331C212.23 124.015 212.146 123.654 212.146 123.25C212.146 122.852 212.23 122.477 212.4 122.125C212.576 121.773 212.825 121.463 213.147 121.193C213.476 120.918 213.874 120.704 214.343 120.552C214.817 120.394 215.351 120.314 215.942 120.314C216.769 120.314 217.478 120.446 218.069 120.71C218.667 120.974 219.124 121.337 219.44 121.8C219.763 122.257 219.924 122.778 219.924 123.364H217.393C217.393 123.118 217.34 122.898 217.234 122.705C217.135 122.506 216.977 122.351 216.76 122.239C216.549 122.122 216.273 122.063 215.934 122.063C215.652 122.063 215.409 122.113 215.204 122.213C214.999 122.307 214.841 122.436 214.729 122.6C214.624 122.758 214.571 122.934 214.571 123.127C214.571 123.273 214.601 123.405 214.659 123.522C214.724 123.634 214.826 123.736 214.967 123.83C215.107 123.924 215.289 124.012 215.512 124.094C215.74 124.17 216.021 124.24 216.355 124.305C217.041 124.445 217.653 124.63 218.192 124.858C218.731 125.081 219.159 125.386 219.476 125.772C219.792 126.153 219.95 126.654 219.95 127.275C219.95 127.697 219.856 128.084 219.669 128.436C219.481 128.787 219.212 129.095 218.86 129.358C218.509 129.616 218.087 129.818 217.595 129.965C217.108 130.105 216.561 130.176 215.951 130.176C215.066 130.176 214.316 130.018 213.701 129.701C213.092 129.385 212.629 128.983 212.312 128.497C212.002 128.005 211.847 127.501 211.847 126.985H214.246C214.258 127.331 214.346 127.609 214.51 127.82C214.68 128.031 214.894 128.184 215.151 128.277C215.415 128.371 215.699 128.418 216.004 128.418C216.332 128.418 216.604 128.374 216.821 128.286C217.038 128.192 217.202 128.069 217.313 127.917C217.431 127.759 217.489 127.577 217.489 127.372ZM226.252 120.49V122.283H220.715V120.49H226.252ZM222.086 118.144H224.617V127.135C224.617 127.41 224.652 127.621 224.723 127.768C224.799 127.914 224.91 128.017 225.057 128.075C225.203 128.128 225.388 128.154 225.61 128.154C225.769 128.154 225.909 128.148 226.032 128.137C226.161 128.119 226.27 128.102 226.357 128.084L226.366 129.947C226.149 130.018 225.915 130.073 225.663 130.114C225.411 130.155 225.133 130.176 224.828 130.176C224.271 130.176 223.785 130.085 223.369 129.903C222.959 129.716 222.643 129.417 222.42 129.007C222.197 128.597 222.086 128.058 222.086 127.39V118.144ZM232.826 127.855V123.619C232.826 123.314 232.776 123.054 232.677 122.837C232.577 122.614 232.422 122.441 232.211 122.318C232.006 122.195 231.739 122.134 231.411 122.134C231.13 122.134 230.887 122.184 230.682 122.283C230.477 122.377 230.318 122.515 230.207 122.696C230.096 122.872 230.04 123.08 230.04 123.32H227.509C227.509 122.916 227.603 122.532 227.79 122.169C227.978 121.806 228.25 121.486 228.607 121.211C228.965 120.93 229.39 120.71 229.882 120.552C230.38 120.394 230.937 120.314 231.552 120.314C232.29 120.314 232.946 120.438 233.521 120.684C234.095 120.93 234.546 121.299 234.874 121.791C235.208 122.283 235.375 122.898 235.375 123.637V127.706C235.375 128.228 235.407 128.655 235.472 128.989C235.536 129.317 235.63 129.604 235.753 129.851V130H233.195C233.072 129.742 232.979 129.42 232.914 129.033C232.855 128.641 232.826 128.248 232.826 127.855ZM233.16 124.208L233.178 125.641H231.763C231.429 125.641 231.139 125.679 230.893 125.755C230.646 125.831 230.444 125.939 230.286 126.08C230.128 126.215 230.011 126.373 229.935 126.555C229.864 126.736 229.829 126.936 229.829 127.152C229.829 127.369 229.879 127.565 229.979 127.741C230.078 127.911 230.222 128.046 230.409 128.146C230.597 128.239 230.816 128.286 231.068 128.286C231.449 128.286 231.78 128.21 232.062 128.058C232.343 127.905 232.56 127.718 232.712 127.495C232.87 127.272 232.952 127.062 232.958 126.862L233.626 127.935C233.532 128.175 233.403 128.424 233.239 128.682C233.081 128.939 232.879 129.183 232.633 129.411C232.387 129.634 232.091 129.818 231.745 129.965C231.399 130.105 230.989 130.176 230.515 130.176C229.911 130.176 229.363 130.056 228.871 129.815C228.385 129.569 227.998 129.232 227.711 128.805C227.43 128.371 227.289 127.879 227.289 127.328C227.289 126.83 227.383 126.388 227.57 126.001C227.758 125.614 228.033 125.289 228.396 125.025C228.766 124.756 229.226 124.554 229.776 124.419C230.327 124.278 230.966 124.208 231.692 124.208H233.16ZM243.347 120.49H245.641V129.684C245.641 130.551 245.447 131.286 245.061 131.89C244.68 132.499 244.146 132.959 243.461 133.27C242.775 133.586 241.979 133.744 241.07 133.744C240.672 133.744 240.25 133.691 239.805 133.586C239.365 133.48 238.943 133.316 238.539 133.094C238.141 132.871 237.807 132.59 237.537 132.25L238.653 130.756C238.946 131.096 239.286 131.359 239.673 131.547C240.06 131.74 240.487 131.837 240.956 131.837C241.413 131.837 241.8 131.752 242.116 131.582C242.433 131.418 242.676 131.175 242.846 130.853C243.016 130.536 243.101 130.152 243.101 129.701V122.688L243.347 120.49ZM236.948 125.359V125.175C236.948 124.448 237.036 123.789 237.212 123.197C237.394 122.6 237.648 122.087 237.977 121.659C238.311 121.231 238.715 120.9 239.189 120.666C239.664 120.432 240.2 120.314 240.798 120.314C241.431 120.314 241.961 120.432 242.389 120.666C242.816 120.9 243.168 121.234 243.443 121.668C243.719 122.096 243.933 122.603 244.085 123.188C244.243 123.769 244.366 124.404 244.454 125.096V125.5C244.366 126.162 244.234 126.777 244.059 127.346C243.883 127.914 243.651 128.412 243.364 128.84C243.077 129.262 242.72 129.59 242.292 129.824C241.87 130.059 241.366 130.176 240.78 130.176C240.194 130.176 239.664 130.056 239.189 129.815C238.721 129.575 238.319 129.238 237.985 128.805C237.651 128.371 237.394 127.861 237.212 127.275C237.036 126.689 236.948 126.051 236.948 125.359ZM239.479 125.175V125.359C239.479 125.752 239.518 126.118 239.594 126.458C239.67 126.798 239.787 127.1 239.945 127.363C240.109 127.621 240.312 127.823 240.552 127.97C240.798 128.11 241.088 128.181 241.422 128.181C241.885 128.181 242.263 128.084 242.556 127.891C242.849 127.691 243.068 127.419 243.215 127.073C243.361 126.728 243.446 126.329 243.47 125.878V124.727C243.458 124.357 243.408 124.026 243.32 123.733C243.232 123.435 243.109 123.18 242.951 122.969C242.793 122.758 242.588 122.594 242.336 122.477C242.084 122.359 241.785 122.301 241.439 122.301C241.105 122.301 240.815 122.377 240.569 122.529C240.329 122.676 240.127 122.878 239.963 123.136C239.805 123.394 239.685 123.698 239.603 124.05C239.521 124.396 239.479 124.771 239.479 125.175ZM250.141 122.564V130H247.609V120.49H249.991L250.141 122.564ZM253.006 120.429L252.962 122.775C252.839 122.758 252.689 122.743 252.514 122.731C252.344 122.714 252.188 122.705 252.048 122.705C251.69 122.705 251.38 122.752 251.116 122.846C250.858 122.934 250.642 123.065 250.466 123.241C250.296 123.417 250.167 123.631 250.079 123.883C249.997 124.135 249.95 124.422 249.938 124.744L249.429 124.586C249.429 123.971 249.49 123.405 249.613 122.89C249.736 122.368 249.915 121.914 250.149 121.527C250.39 121.141 250.683 120.842 251.028 120.631C251.374 120.42 251.77 120.314 252.215 120.314C252.355 120.314 252.499 120.326 252.646 120.35C252.792 120.367 252.912 120.394 253.006 120.429ZM259.035 127.855V123.619C259.035 123.314 258.985 123.054 258.886 122.837C258.786 122.614 258.631 122.441 258.42 122.318C258.215 122.195 257.948 122.134 257.62 122.134C257.339 122.134 257.096 122.184 256.891 122.283C256.686 122.377 256.527 122.515 256.416 122.696C256.305 122.872 256.249 123.08 256.249 123.32H253.718C253.718 122.916 253.812 122.532 253.999 122.169C254.187 121.806 254.459 121.486 254.816 121.211C255.174 120.93 255.599 120.71 256.091 120.552C256.589 120.394 257.146 120.314 257.761 120.314C258.499 120.314 259.155 120.438 259.729 120.684C260.304 120.93 260.755 121.299 261.083 121.791C261.417 122.283 261.584 122.898 261.584 123.637V127.706C261.584 128.228 261.616 128.655 261.681 128.989C261.745 129.317 261.839 129.604 261.962 129.851V130H259.404C259.281 129.742 259.188 129.42 259.123 129.033C259.064 128.641 259.035 128.248 259.035 127.855ZM259.369 124.208L259.387 125.641H257.972C257.638 125.641 257.348 125.679 257.102 125.755C256.855 125.831 256.653 125.939 256.495 126.08C256.337 126.215 256.22 126.373 256.144 126.555C256.073 126.736 256.038 126.936 256.038 127.152C256.038 127.369 256.088 127.565 256.188 127.741C256.287 127.911 256.431 128.046 256.618 128.146C256.806 128.239 257.025 128.286 257.277 128.286C257.658 128.286 257.989 128.21 258.271 128.058C258.552 127.905 258.769 127.718 258.921 127.495C259.079 127.272 259.161 127.062 259.167 126.862L259.835 127.935C259.741 128.175 259.612 128.424 259.448 128.682C259.29 128.939 259.088 129.183 258.842 129.411C258.596 129.634 258.3 129.818 257.954 129.965C257.608 130.105 257.198 130.176 256.724 130.176C256.12 130.176 255.572 130.056 255.08 129.815C254.594 129.569 254.207 129.232 253.92 128.805C253.639 128.371 253.498 127.879 253.498 127.328C253.498 126.83 253.592 126.388 253.779 126.001C253.967 125.614 254.242 125.289 254.605 125.025C254.975 124.756 255.435 124.554 255.985 124.419C256.536 124.278 257.175 124.208 257.901 124.208H259.369ZM266.066 122.459V130H263.526V120.49H265.908L266.066 122.459ZM265.715 124.911H265.012C265.012 124.249 265.091 123.64 265.249 123.083C265.413 122.521 265.65 122.034 265.961 121.624C266.277 121.208 266.667 120.886 267.13 120.657C267.593 120.429 268.129 120.314 268.738 120.314C269.16 120.314 269.547 120.379 269.898 120.508C270.25 120.631 270.552 120.827 270.804 121.097C271.062 121.36 271.261 121.706 271.401 122.134C271.542 122.556 271.612 123.062 271.612 123.654V130H269.081V123.936C269.081 123.502 269.022 123.168 268.905 122.934C268.788 122.699 268.621 122.535 268.404 122.441C268.193 122.348 267.938 122.301 267.64 122.301C267.312 122.301 267.024 122.368 266.778 122.503C266.538 122.638 266.339 122.825 266.181 123.065C266.022 123.3 265.905 123.575 265.829 123.892C265.753 124.208 265.715 124.548 265.715 124.911ZM271.375 124.621L270.47 124.735C270.47 124.114 270.546 123.537 270.698 123.004C270.856 122.471 271.088 122.002 271.393 121.598C271.703 121.193 272.087 120.88 272.544 120.657C273.001 120.429 273.528 120.314 274.126 120.314C274.583 120.314 274.999 120.382 275.374 120.517C275.749 120.646 276.068 120.854 276.332 121.141C276.602 121.422 276.807 121.791 276.947 122.248C277.094 122.705 277.167 123.265 277.167 123.927V130H274.627V123.927C274.627 123.487 274.568 123.153 274.451 122.925C274.34 122.69 274.176 122.529 273.959 122.441C273.748 122.348 273.496 122.301 273.203 122.301C272.898 122.301 272.632 122.362 272.403 122.485C272.175 122.603 271.984 122.767 271.832 122.978C271.68 123.188 271.565 123.435 271.489 123.716C271.413 123.991 271.375 124.293 271.375 124.621Z" fill="white"/>
<path d="M397.126 67.4385H393.865V65.3818H397.126C397.63 65.3818 398.04 65.2998 398.356 65.1357C398.673 64.9658 398.904 64.7314 399.051 64.4326C399.197 64.1338 399.271 63.7969 399.271 63.4219C399.271 63.041 399.197 62.6865 399.051 62.3584C398.904 62.0303 398.673 61.7666 398.356 61.5674C398.04 61.3682 397.63 61.2686 397.126 61.2686H394.779V72H392.143V59.2031H397.126C398.128 59.2031 398.986 59.3848 399.701 59.748C400.422 60.1055 400.973 60.6006 401.354 61.2334C401.734 61.8662 401.925 62.5898 401.925 63.4043C401.925 64.2305 401.734 64.9453 401.354 65.5488C400.973 66.1523 400.422 66.6182 399.701 66.9463C398.986 67.2744 398.128 67.4385 397.126 67.4385ZM406.117 64.5645V72H403.586V62.4902H405.968L406.117 64.5645ZM408.982 62.4287L408.938 64.7754C408.815 64.7578 408.666 64.7432 408.49 64.7314C408.32 64.7139 408.165 64.7051 408.024 64.7051C407.667 64.7051 407.356 64.752 407.093 64.8457C406.835 64.9336 406.618 65.0654 406.442 65.2412C406.272 65.417 406.144 65.6309 406.056 65.8828C405.974 66.1348 405.927 66.4219 405.915 66.7441L405.405 66.5859C405.405 65.9707 405.467 65.4053 405.59 64.8896C405.713 64.3682 405.892 63.9141 406.126 63.5273C406.366 63.1406 406.659 62.8418 407.005 62.6309C407.351 62.4199 407.746 62.3145 408.191 62.3145C408.332 62.3145 408.476 62.3262 408.622 62.3496C408.769 62.3672 408.889 62.3936 408.982 62.4287ZM409.51 67.3418V67.1572C409.51 66.46 409.609 65.8184 409.809 65.2324C410.008 64.6406 410.298 64.1279 410.679 63.6943C411.06 63.2607 411.528 62.9238 412.085 62.6836C412.642 62.4375 413.28 62.3145 414.001 62.3145C414.722 62.3145 415.363 62.4375 415.926 62.6836C416.488 62.9238 416.96 63.2607 417.341 63.6943C417.728 64.1279 418.021 64.6406 418.22 65.2324C418.419 65.8184 418.519 66.46 418.519 67.1572V67.3418C418.519 68.0332 418.419 68.6748 418.22 69.2666C418.021 69.8525 417.728 70.3652 417.341 70.8047C416.96 71.2383 416.491 71.5752 415.935 71.8154C415.378 72.0557 414.739 72.1758 414.019 72.1758C413.298 72.1758 412.656 72.0557 412.094 71.8154C411.537 71.5752 411.065 71.2383 410.679 70.8047C410.298 70.3652 410.008 69.8525 409.809 69.2666C409.609 68.6748 409.51 68.0332 409.51 67.3418ZM412.041 67.1572V67.3418C412.041 67.7402 412.076 68.1123 412.146 68.458C412.217 68.8037 412.328 69.1084 412.48 69.3721C412.639 69.6299 412.844 69.832 413.096 69.9785C413.348 70.125 413.655 70.1982 414.019 70.1982C414.37 70.1982 414.672 70.125 414.924 69.9785C415.176 69.832 415.378 69.6299 415.53 69.3721C415.683 69.1084 415.794 68.8037 415.864 68.458C415.94 68.1123 415.979 67.7402 415.979 67.3418V67.1572C415.979 66.7705 415.94 66.4072 415.864 66.0674C415.794 65.7217 415.68 65.417 415.521 65.1533C415.369 64.8838 415.167 64.6729 414.915 64.5205C414.663 64.3682 414.358 64.292 414.001 64.292C413.644 64.292 413.339 64.3682 413.087 64.5205C412.841 64.6729 412.639 64.8838 412.48 65.1533C412.328 65.417 412.217 65.7217 412.146 66.0674C412.076 66.4072 412.041 66.7705 412.041 67.1572ZM420.215 62.4902H422.755V72.5713C422.755 73.2744 422.626 73.8691 422.368 74.3555C422.11 74.8418 421.738 75.2109 421.252 75.4629C420.766 75.7148 420.177 75.8408 419.485 75.8408C419.269 75.8408 419.058 75.8291 418.853 75.8057C418.642 75.7822 418.425 75.7441 418.202 75.6914L418.211 73.749C418.352 73.7725 418.489 73.79 418.624 73.8018C418.753 73.8193 418.885 73.8281 419.02 73.8281C419.283 73.8281 419.503 73.7842 419.679 73.6963C419.854 73.6084 419.986 73.4707 420.074 73.2832C420.168 73.1016 420.215 72.8643 420.215 72.5713V62.4902ZM420.013 60.0117C420.013 59.6426 420.142 59.3379 420.399 59.0977C420.663 58.8574 421.009 58.7373 421.437 58.7373C421.87 58.7373 422.216 58.8574 422.474 59.0977C422.731 59.3379 422.86 59.6426 422.86 60.0117C422.86 60.3809 422.731 60.6855 422.474 60.9258C422.216 61.166 421.87 61.2861 421.437 61.2861C421.009 61.2861 420.663 61.166 420.399 60.9258C420.142 60.6855 420.013 60.3809 420.013 60.0117ZM429.145 72.1758C428.406 72.1758 427.744 72.0586 427.158 71.8242C426.572 71.584 426.074 71.2529 425.664 70.8311C425.26 70.4092 424.949 69.9199 424.732 69.3633C424.516 68.8008 424.407 68.2031 424.407 67.5703V67.2188C424.407 66.498 424.51 65.8389 424.715 65.2412C424.92 64.6436 425.213 64.125 425.594 63.6855C425.98 63.2461 426.449 62.9092 427 62.6748C427.551 62.4346 428.172 62.3145 428.863 62.3145C429.537 62.3145 430.135 62.4258 430.656 62.6484C431.178 62.8711 431.614 63.1875 431.966 63.5977C432.323 64.0078 432.593 64.5 432.774 65.0742C432.956 65.6426 433.047 66.2754 433.047 66.9727V68.0273H425.488V66.3398H430.56V66.1465C430.56 65.7949 430.495 65.4814 430.366 65.2061C430.243 64.9248 430.056 64.7021 429.804 64.5381C429.552 64.374 429.229 64.292 428.837 64.292C428.503 64.292 428.216 64.3652 427.976 64.5117C427.735 64.6582 427.539 64.8633 427.387 65.127C427.24 65.3906 427.129 65.7012 427.053 66.0586C426.982 66.4102 426.947 66.7969 426.947 67.2188V67.5703C426.947 67.9512 427 68.3027 427.105 68.625C427.217 68.9473 427.372 69.2256 427.571 69.46C427.776 69.6943 428.022 69.876 428.31 70.0049C428.603 70.1338 428.934 70.1982 429.303 70.1982C429.76 70.1982 430.185 70.1104 430.577 69.9346C430.976 69.7529 431.318 69.4805 431.605 69.1172L432.836 70.4531C432.637 70.7402 432.364 71.0156 432.019 71.2793C431.679 71.543 431.269 71.7598 430.788 71.9297C430.308 72.0938 429.76 72.1758 429.145 72.1758ZM438.417 70.1982C438.728 70.1982 439.003 70.1396 439.243 70.0225C439.483 69.8994 439.671 69.7295 439.806 69.5127C439.946 69.29 440.02 69.0293 440.025 68.7305H442.407C442.401 69.3984 442.223 69.9932 441.871 70.5146C441.52 71.0303 441.048 71.4375 440.456 71.7363C439.864 72.0293 439.202 72.1758 438.47 72.1758C437.731 72.1758 437.087 72.0527 436.536 71.8066C435.991 71.5605 435.537 71.2207 435.174 70.7871C434.811 70.3477 434.538 69.8379 434.356 69.2578C434.175 68.6719 434.084 68.0449 434.084 67.377V67.1221C434.084 66.4482 434.175 65.8213 434.356 65.2412C434.538 64.6553 434.811 64.1455 435.174 63.7119C435.537 63.2725 435.991 62.9297 436.536 62.6836C437.081 62.4375 437.72 62.3145 438.452 62.3145C439.231 62.3145 439.914 62.4639 440.5 62.7627C441.092 63.0615 441.555 63.4893 441.889 64.0459C442.229 64.5967 442.401 65.25 442.407 66.0059H440.025C440.02 65.6895 439.952 65.4023 439.823 65.1445C439.7 64.8867 439.519 64.6816 439.278 64.5293C439.044 64.3711 438.754 64.292 438.408 64.292C438.039 64.292 437.737 64.3711 437.503 64.5293C437.269 64.6816 437.087 64.8926 436.958 65.1621C436.829 65.4258 436.738 65.7275 436.686 66.0674C436.639 66.4014 436.615 66.7529 436.615 67.1221V67.377C436.615 67.7461 436.639 68.1006 436.686 68.4404C436.732 68.7803 436.82 69.082 436.949 69.3457C437.084 69.6094 437.269 69.8174 437.503 69.9697C437.737 70.1221 438.042 70.1982 438.417 70.1982ZM448.533 62.4902V64.2832H442.996V62.4902H448.533ZM444.367 60.1436H446.898V69.1348C446.898 69.4102 446.934 69.6211 447.004 69.7676C447.08 69.9141 447.191 70.0166 447.338 70.0752C447.484 70.1279 447.669 70.1543 447.892 70.1543C448.05 70.1543 448.19 70.1484 448.313 70.1367C448.442 70.1191 448.551 70.1016 448.639 70.084L448.647 71.9473C448.431 72.0176 448.196 72.0732 447.944 72.1143C447.692 72.1553 447.414 72.1758 447.109 72.1758C446.553 72.1758 446.066 72.085 445.65 71.9033C445.24 71.7158 444.924 71.417 444.701 71.0068C444.479 70.5967 444.367 70.0576 444.367 69.3896V60.1436ZM455.116 69.3721C455.116 69.1904 455.063 69.0264 454.958 68.8799C454.853 68.7334 454.656 68.5986 454.369 68.4756C454.088 68.3467 453.681 68.2295 453.147 68.124C452.667 68.0186 452.219 67.8867 451.803 67.7285C451.393 67.5645 451.035 67.3682 450.73 67.1396C450.432 66.9111 450.197 66.6416 450.027 66.3311C449.857 66.0146 449.772 65.6543 449.772 65.25C449.772 64.8516 449.857 64.4766 450.027 64.125C450.203 63.7734 450.452 63.4629 450.774 63.1934C451.103 62.918 451.501 62.7041 451.97 62.5518C452.444 62.3936 452.978 62.3145 453.569 62.3145C454.396 62.3145 455.104 62.4463 455.696 62.71C456.294 62.9736 456.751 63.3369 457.067 63.7998C457.39 64.2568 457.551 64.7783 457.551 65.3643H455.02C455.02 65.1182 454.967 64.8984 454.861 64.7051C454.762 64.5059 454.604 64.3506 454.387 64.2393C454.176 64.1221 453.9 64.0635 453.561 64.0635C453.279 64.0635 453.036 64.1133 452.831 64.2129C452.626 64.3066 452.468 64.4355 452.356 64.5996C452.251 64.7578 452.198 64.9336 452.198 65.127C452.198 65.2734 452.228 65.4053 452.286 65.5225C452.351 65.6338 452.453 65.7363 452.594 65.8301C452.734 65.9238 452.916 66.0117 453.139 66.0938C453.367 66.1699 453.648 66.2402 453.982 66.3047C454.668 66.4453 455.28 66.6299 455.819 66.8584C456.358 67.0811 456.786 67.3857 457.103 67.7725C457.419 68.1533 457.577 68.6543 457.577 69.2754C457.577 69.6973 457.483 70.084 457.296 70.4355C457.108 70.7871 456.839 71.0947 456.487 71.3584C456.136 71.6162 455.714 71.8184 455.222 71.9648C454.735 72.1055 454.188 72.1758 453.578 72.1758C452.693 72.1758 451.943 72.0176 451.328 71.7012C450.719 71.3848 450.256 70.9834 449.939 70.4971C449.629 70.0049 449.474 69.501 449.474 68.9854H451.873C451.885 69.3311 451.973 69.6094 452.137 69.8203C452.307 70.0312 452.521 70.1836 452.778 70.2773C453.042 70.3711 453.326 70.418 453.631 70.418C453.959 70.418 454.231 70.374 454.448 70.2861C454.665 70.1924 454.829 70.0693 454.94 69.917C455.058 69.7588 455.116 69.5771 455.116 69.3721Z" fill="white"/>
<path d="M203.805 10.6514C203.805 10.4229 203.77 10.2178 203.699 10.0361C203.635 9.84863 203.512 9.67871 203.33 9.52637C203.148 9.36816 202.894 9.21289 202.565 9.06055C202.237 8.9082 201.812 8.75 201.291 8.58594C200.711 8.39844 200.16 8.1875 199.639 7.95312C199.123 7.71875 198.666 7.44629 198.268 7.13574C197.875 6.81934 197.564 6.45312 197.336 6.03711C197.113 5.62109 197.002 5.1377 197.002 4.58691C197.002 4.05371 197.119 3.57031 197.354 3.13672C197.588 2.69727 197.916 2.32227 198.338 2.01172C198.76 1.69531 199.258 1.45215 199.832 1.28223C200.412 1.1123 201.048 1.02734 201.739 1.02734C202.683 1.02734 203.506 1.19727 204.209 1.53711C204.912 1.87695 205.457 2.34277 205.844 2.93457C206.236 3.52637 206.433 4.20312 206.433 4.96484H203.813C203.813 4.58984 203.734 4.26172 203.576 3.98047C203.424 3.69336 203.189 3.46777 202.873 3.30371C202.562 3.13965 202.17 3.05762 201.695 3.05762C201.238 3.05762 200.857 3.12793 200.553 3.26855C200.248 3.40332 200.02 3.58789 199.867 3.82227C199.715 4.05078 199.639 4.30859 199.639 4.5957C199.639 4.8125 199.691 5.00879 199.797 5.18457C199.908 5.36035 200.072 5.52441 200.289 5.67676C200.506 5.8291 200.772 5.97266 201.089 6.10742C201.405 6.24219 201.771 6.37402 202.188 6.50293C202.885 6.71387 203.497 6.95117 204.024 7.21484C204.558 7.47852 205.003 7.77441 205.36 8.10254C205.718 8.43066 205.987 8.80273 206.169 9.21875C206.351 9.63477 206.441 10.1064 206.441 10.6338C206.441 11.1904 206.333 11.6885 206.116 12.1279C205.899 12.5674 205.586 12.9395 205.176 13.2441C204.766 13.5488 204.276 13.7803 203.708 13.9385C203.14 14.0967 202.504 14.1758 201.801 14.1758C201.168 14.1758 200.544 14.0938 199.929 13.9297C199.313 13.7598 198.754 13.5049 198.25 13.165C197.752 12.8252 197.354 12.3916 197.055 11.8643C196.756 11.3369 196.606 10.7129 196.606 9.99219H199.252C199.252 10.3906 199.313 10.7275 199.437 11.0029C199.56 11.2783 199.732 11.501 199.955 11.6709C200.184 11.8408 200.453 11.9639 200.764 12.04C201.08 12.1162 201.426 12.1543 201.801 12.1543C202.258 12.1543 202.633 12.0898 202.926 11.9609C203.225 11.832 203.444 11.6533 203.585 11.4248C203.731 11.1963 203.805 10.9385 203.805 10.6514ZM212.453 14.1758C211.715 14.1758 211.053 14.0586 210.467 13.8242C209.881 13.584 209.383 13.2529 208.973 12.8311C208.568 12.4092 208.258 11.9199 208.041 11.3633C207.824 10.8008 207.716 10.2031 207.716 9.57031V9.21875C207.716 8.49805 207.818 7.83887 208.023 7.24121C208.229 6.64355 208.521 6.125 208.902 5.68555C209.289 5.24609 209.758 4.90918 210.309 4.6748C210.859 4.43457 211.48 4.31445 212.172 4.31445C212.846 4.31445 213.443 4.42578 213.965 4.64844C214.486 4.87109 214.923 5.1875 215.274 5.59766C215.632 6.00781 215.901 6.5 216.083 7.07422C216.265 7.64258 216.355 8.27539 216.355 8.97266V10.0273H208.797V8.33984H213.868V8.14648C213.868 7.79492 213.804 7.48145 213.675 7.20605C213.552 6.9248 213.364 6.70215 213.112 6.53809C212.86 6.37402 212.538 6.29199 212.146 6.29199C211.812 6.29199 211.524 6.36523 211.284 6.51172C211.044 6.6582 210.848 6.86328 210.695 7.12695C210.549 7.39062 210.438 7.70117 210.361 8.05859C210.291 8.41016 210.256 8.79688 210.256 9.21875V9.57031C210.256 9.95117 210.309 10.3027 210.414 10.625C210.525 10.9473 210.681 11.2256 210.88 11.46C211.085 11.6943 211.331 11.876 211.618 12.0049C211.911 12.1338 212.242 12.1982 212.611 12.1982C213.068 12.1982 213.493 12.1104 213.886 11.9346C214.284 11.7529 214.627 11.4805 214.914 11.1172L216.145 12.4531C215.945 12.7402 215.673 13.0156 215.327 13.2793C214.987 13.543 214.577 13.7598 214.097 13.9297C213.616 14.0938 213.068 14.1758 212.453 14.1758ZM220.328 6.56445V14H217.797V4.49023H220.179L220.328 6.56445ZM223.193 4.42871L223.149 6.77539C223.026 6.75781 222.877 6.74316 222.701 6.73145C222.531 6.71387 222.376 6.70508 222.235 6.70508C221.878 6.70508 221.567 6.75195 221.304 6.8457C221.046 6.93359 220.829 7.06543 220.653 7.24121C220.483 7.41699 220.354 7.63086 220.267 7.88281C220.185 8.13477 220.138 8.42188 220.126 8.74414L219.616 8.58594C219.616 7.9707 219.678 7.40527 219.801 6.88965C219.924 6.36816 220.103 5.91406 220.337 5.52734C220.577 5.14062 220.87 4.8418 221.216 4.63086C221.562 4.41992 221.957 4.31445 222.402 4.31445C222.543 4.31445 222.687 4.32617 222.833 4.34961C222.979 4.36719 223.1 4.39355 223.193 4.42871ZM227.781 12.1543L229.891 4.49023H232.536L229.328 14H227.729L227.781 12.1543ZM226.331 4.49023L228.449 12.1631L228.493 14H226.885L223.677 4.49023H226.331ZM236.342 4.49023V14H233.802V4.49023H236.342ZM233.644 2.01172C233.644 1.64258 233.772 1.33789 234.03 1.09766C234.288 0.857422 234.634 0.737305 235.067 0.737305C235.495 0.737305 235.838 0.857422 236.096 1.09766C236.359 1.33789 236.491 1.64258 236.491 2.01172C236.491 2.38086 236.359 2.68555 236.096 2.92578C235.838 3.16602 235.495 3.28613 235.067 3.28613C234.634 3.28613 234.288 3.16602 234.03 2.92578C233.772 2.68555 233.644 2.38086 233.644 2.01172ZM242.362 12.1982C242.673 12.1982 242.948 12.1396 243.188 12.0225C243.429 11.8994 243.616 11.7295 243.751 11.5127C243.892 11.29 243.965 11.0293 243.971 10.7305H246.353C246.347 11.3984 246.168 11.9932 245.816 12.5146C245.465 13.0303 244.993 13.4375 244.401 13.7363C243.81 14.0293 243.147 14.1758 242.415 14.1758C241.677 14.1758 241.032 14.0527 240.481 13.8066C239.937 13.5605 239.482 13.2207 239.119 12.7871C238.756 12.3477 238.483 11.8379 238.302 11.2578C238.12 10.6719 238.029 10.0449 238.029 9.37695V9.12207C238.029 8.44824 238.12 7.82129 238.302 7.24121C238.483 6.65527 238.756 6.14551 239.119 5.71191C239.482 5.27246 239.937 4.92969 240.481 4.68359C241.026 4.4375 241.665 4.31445 242.397 4.31445C243.177 4.31445 243.859 4.46387 244.445 4.7627C245.037 5.06152 245.5 5.48926 245.834 6.0459C246.174 6.59668 246.347 7.25 246.353 8.00586H243.971C243.965 7.68945 243.897 7.40234 243.769 7.14453C243.646 6.88672 243.464 6.68164 243.224 6.5293C242.989 6.37109 242.699 6.29199 242.354 6.29199C241.984 6.29199 241.683 6.37109 241.448 6.5293C241.214 6.68164 241.032 6.89258 240.903 7.16211C240.774 7.42578 240.684 7.72754 240.631 8.06738C240.584 8.40137 240.561 8.75293 240.561 9.12207V9.37695C240.561 9.74609 240.584 10.1006 240.631 10.4404C240.678 10.7803 240.766 11.082 240.895 11.3457C241.029 11.6094 241.214 11.8174 241.448 11.9697C241.683 12.1221 241.987 12.1982 242.362 12.1982ZM252.197 14.1758C251.459 14.1758 250.797 14.0586 250.211 13.8242C249.625 13.584 249.127 13.2529 248.717 12.8311C248.312 12.4092 248.002 11.9199 247.785 11.3633C247.568 10.8008 247.46 10.2031 247.46 9.57031V9.21875C247.46 8.49805 247.562 7.83887 247.768 7.24121C247.973 6.64355 248.266 6.125 248.646 5.68555C249.033 5.24609 249.502 4.90918 250.053 4.6748C250.604 4.43457 251.225 4.31445 251.916 4.31445C252.59 4.31445 253.188 4.42578 253.709 4.64844C254.23 4.87109 254.667 5.1875 255.019 5.59766C255.376 6.00781 255.646 6.5 255.827 7.07422C256.009 7.64258 256.1 8.27539 256.1 8.97266V10.0273H248.541V8.33984H253.612V8.14648C253.612 7.79492 253.548 7.48145 253.419 7.20605C253.296 6.9248 253.108 6.70215 252.856 6.53809C252.604 6.37402 252.282 6.29199 251.89 6.29199C251.556 6.29199 251.269 6.36523 251.028 6.51172C250.788 6.6582 250.592 6.86328 250.439 7.12695C250.293 7.39062 250.182 7.70117 250.105 8.05859C250.035 8.41016 250 8.79688 250 9.21875V9.57031C250 9.95117 250.053 10.3027 250.158 10.625C250.27 10.9473 250.425 11.2256 250.624 11.46C250.829 11.6943 251.075 11.876 251.362 12.0049C251.655 12.1338 251.986 12.1982 252.355 12.1982C252.812 12.1982 253.237 12.1104 253.63 11.9346C254.028 11.7529 254.371 11.4805 254.658 11.1172L255.889 12.4531C255.689 12.7402 255.417 13.0156 255.071 13.2793C254.731 13.543 254.321 13.7598 253.841 13.9297C253.36 14.0938 252.812 14.1758 252.197 14.1758ZM262.683 11.3721C262.683 11.1904 262.63 11.0264 262.524 10.8799C262.419 10.7334 262.223 10.5986 261.936 10.4756C261.654 10.3467 261.247 10.2295 260.714 10.124C260.233 10.0186 259.785 9.88672 259.369 9.72852C258.959 9.56445 258.602 9.36816 258.297 9.13965C257.998 8.91113 257.764 8.6416 257.594 8.33105C257.424 8.01465 257.339 7.6543 257.339 7.25C257.339 6.85156 257.424 6.47656 257.594 6.125C257.77 5.77344 258.019 5.46289 258.341 5.19336C258.669 4.91797 259.067 4.7041 259.536 4.55176C260.011 4.39355 260.544 4.31445 261.136 4.31445C261.962 4.31445 262.671 4.44629 263.263 4.70996C263.86 4.97363 264.317 5.33691 264.634 5.7998C264.956 6.25684 265.117 6.77832 265.117 7.36426H262.586C262.586 7.11816 262.533 6.89844 262.428 6.70508C262.328 6.50586 262.17 6.35059 261.953 6.23926C261.742 6.12207 261.467 6.06348 261.127 6.06348C260.846 6.06348 260.603 6.11328 260.397 6.21289C260.192 6.30664 260.034 6.43555 259.923 6.59961C259.817 6.75781 259.765 6.93359 259.765 7.12695C259.765 7.27344 259.794 7.40527 259.853 7.52246C259.917 7.63379 260.02 7.73633 260.16 7.83008C260.301 7.92383 260.482 8.01172 260.705 8.09375C260.934 8.16992 261.215 8.24023 261.549 8.30469C262.234 8.44531 262.847 8.62988 263.386 8.8584C263.925 9.08105 264.353 9.38574 264.669 9.77246C264.985 10.1533 265.144 10.6543 265.144 11.2754C265.144 11.6973 265.05 12.084 264.862 12.4355C264.675 12.7871 264.405 13.0947 264.054 13.3584C263.702 13.6162 263.28 13.8184 262.788 13.9648C262.302 14.1055 261.754 14.1758 261.145 14.1758C260.26 14.1758 259.51 14.0176 258.895 13.7012C258.285 13.3848 257.822 12.9834 257.506 12.4971C257.195 12.0049 257.04 11.501 257.04 10.9854H259.439C259.451 11.3311 259.539 11.6094 259.703 11.8203C259.873 12.0312 260.087 12.1836 260.345 12.2773C260.608 12.3711 260.893 12.418 261.197 12.418C261.525 12.418 261.798 12.374 262.015 12.2861C262.231 12.1924 262.396 12.0693 262.507 11.917C262.624 11.7588 262.683 11.5771 262.683 11.3721Z" fill="white"/>
</svg>
