<svg width="308" height="15" viewBox="0 0 308 15" fill="none" xmlns="http://www.w3.org/2000/svg">
<path d="M8.63281 8.17188V9.35938H0.414062V8.50781L5.50781 0.625H6.6875L5.42188 2.90625L2.05469 8.17188H8.63281ZM7.04688 0.625V12H5.60156V0.625H7.04688ZM12.0547 5.60156H13.0859C13.5911 5.60156 14.0078 5.51823 14.3359 5.35156C14.6693 5.17969 14.9167 4.94792 15.0781 4.65625C15.2448 4.35938 15.3281 4.02604 15.3281 3.65625C15.3281 3.21875 15.2552 2.85156 15.1094 2.55469C14.9635 2.25781 14.7448 2.03385 14.4531 1.88281C14.1615 1.73177 13.7917 1.65625 13.3438 1.65625C12.9375 1.65625 12.5781 1.73698 12.2656 1.89844C11.9583 2.05469 11.7161 2.27865 11.5391 2.57031C11.3672 2.86198 11.2812 3.20573 11.2812 3.60156H9.83594C9.83594 3.02344 9.98177 2.4974 10.2734 2.02344C10.5651 1.54948 10.974 1.17188 11.5 0.890625C12.0312 0.609375 12.6458 0.46875 13.3438 0.46875C14.0312 0.46875 14.6328 0.591146 15.1484 0.835938C15.6641 1.07552 16.0651 1.4349 16.3516 1.91406C16.638 2.38802 16.7812 2.97917 16.7812 3.6875C16.7812 3.97396 16.7135 4.28125 16.5781 4.60938C16.4479 4.93229 16.2422 5.23438 15.9609 5.51562C15.6849 5.79688 15.3255 6.02865 14.8828 6.21094C14.4401 6.38802 13.9089 6.47656 13.2891 6.47656H12.0547V5.60156ZM12.0547 6.78906V5.92188H13.2891C14.013 5.92188 14.612 6.00781 15.0859 6.17969C15.5599 6.35156 15.9323 6.58073 16.2031 6.86719C16.4792 7.15365 16.6719 7.46875 16.7812 7.8125C16.8958 8.15104 16.9531 8.48958 16.9531 8.82812C16.9531 9.35938 16.862 9.83073 16.6797 10.2422C16.5026 10.6536 16.25 11.0026 15.9219 11.2891C15.599 11.5755 15.2188 11.7917 14.7812 11.9375C14.3438 12.0833 13.8672 12.1562 13.3516 12.1562C12.8568 12.1562 12.3906 12.0859 11.9531 11.9453C11.5208 11.8047 11.138 11.6016 10.8047 11.3359C10.4714 11.0651 10.2109 10.7344 10.0234 10.3438C9.83594 9.94792 9.74219 9.4974 9.74219 8.99219H11.1875C11.1875 9.38802 11.2734 9.73438 11.4453 10.0312C11.6224 10.3281 11.8724 10.5599 12.1953 10.7266C12.5234 10.888 12.9089 10.9688 13.3516 10.9688C13.7943 10.9688 14.1745 10.8932 14.4922 10.7422C14.8151 10.5859 15.0625 10.3516 15.2344 10.0391C15.4115 9.72656 15.5 9.33333 15.5 8.85938C15.5 8.38542 15.401 7.9974 15.2031 7.69531C15.0052 7.38802 14.724 7.16146 14.3594 7.01562C14 6.86458 13.5755 6.78906 13.0859 6.78906H12.0547ZM20.7734 6.58594L19.6172 6.28906L20.1875 0.625H26.0234V1.96094H21.4141L21.0703 5.05469C21.2786 4.9349 21.5417 4.82292 21.8594 4.71875C22.1823 4.61458 22.5521 4.5625 22.9688 4.5625C23.4948 4.5625 23.9661 4.65365 24.3828 4.83594C24.7995 5.01302 25.1536 5.26823 25.4453 5.60156C25.7422 5.9349 25.9688 6.33594 26.125 6.80469C26.2812 7.27344 26.3594 7.79688 26.3594 8.375C26.3594 8.92188 26.2839 9.42448 26.1328 9.88281C25.987 10.3411 25.7656 10.7422 25.4688 11.0859C25.1719 11.4245 24.7969 11.6875 24.3438 11.875C23.8958 12.0625 23.3672 12.1562 22.7578 12.1562C22.2995 12.1562 21.8646 12.0938 21.4531 11.9688C21.0469 11.8385 20.6823 11.6432 20.3594 11.3828C20.0417 11.1172 19.7812 10.7891 19.5781 10.3984C19.3802 10.0026 19.2552 9.53906 19.2031 9.00781H20.5781C20.6406 9.4349 20.7656 9.79427 20.9531 10.0859C21.1406 10.3776 21.3854 10.599 21.6875 10.75C21.9948 10.8958 22.3516 10.9688 22.7578 10.9688C23.1016 10.9688 23.4062 10.9089 23.6719 10.7891C23.9375 10.6693 24.1615 10.4974 24.3438 10.2734C24.526 10.0495 24.6641 9.77865 24.7578 9.46094C24.8568 9.14323 24.9062 8.78646 24.9062 8.39062C24.9062 8.03125 24.8568 7.69792 24.7578 7.39062C24.6589 7.08333 24.5104 6.8151 24.3125 6.58594C24.1198 6.35677 23.8828 6.17969 23.6016 6.05469C23.3203 5.92448 22.9974 5.85938 22.6328 5.85938C22.1484 5.85938 21.7812 5.92448 21.5312 6.05469C21.2865 6.1849 21.0339 6.36198 20.7734 6.58594ZM30.0547 5.60156H31.0859C31.5911 5.60156 32.0078 5.51823 32.3359 5.35156C32.6693 5.17969 32.9167 4.94792 33.0781 4.65625C33.2448 4.35938 33.3281 4.02604 33.3281 3.65625C33.3281 3.21875 33.2552 2.85156 33.1094 2.55469C32.9635 2.25781 32.7448 2.03385 32.4531 1.88281C32.1615 1.73177 31.7917 1.65625 31.3438 1.65625C30.9375 1.65625 30.5781 1.73698 30.2656 1.89844C29.9583 2.05469 29.7161 2.27865 29.5391 2.57031C29.3672 2.86198 29.2812 3.20573 29.2812 3.60156H27.8359C27.8359 3.02344 27.9818 2.4974 28.2734 2.02344C28.5651 1.54948 28.974 1.17188 29.5 0.890625C30.0312 0.609375 30.6458 0.46875 31.3438 0.46875C32.0312 0.46875 32.6328 0.591146 33.1484 0.835938C33.6641 1.07552 34.0651 1.4349 34.3516 1.91406C34.638 2.38802 34.7812 2.97917 34.7812 3.6875C34.7812 3.97396 34.7135 4.28125 34.5781 4.60938C34.4479 4.93229 34.2422 5.23438 33.9609 5.51562C33.6849 5.79688 33.3255 6.02865 32.8828 6.21094C32.4401 6.38802 31.9089 6.47656 31.2891 6.47656H30.0547V5.60156ZM30.0547 6.78906V5.92188H31.2891C32.013 5.92188 32.612 6.00781 33.0859 6.17969C33.5599 6.35156 33.9323 6.58073 34.2031 6.86719C34.4792 7.15365 34.6719 7.46875 34.7812 7.8125C34.8958 8.15104 34.9531 8.48958 34.9531 8.82812C34.9531 9.35938 34.862 9.83073 34.6797 10.2422C34.5026 10.6536 34.25 11.0026 33.9219 11.2891C33.599 11.5755 33.2188 11.7917 32.7812 11.9375C32.3438 12.0833 31.8672 12.1562 31.3516 12.1562C30.8568 12.1562 30.3906 12.0859 29.9531 11.9453C29.5208 11.8047 29.138 11.6016 28.8047 11.3359C28.4714 11.0651 28.2109 10.7344 28.0234 10.3438C27.8359 9.94792 27.7422 9.4974 27.7422 8.99219H29.1875C29.1875 9.38802 29.2734 9.73438 29.4453 10.0312C29.6224 10.3281 29.8724 10.5599 30.1953 10.7266C30.5234 10.888 30.9089 10.9688 31.3516 10.9688C31.7943 10.9688 32.1745 10.8932 32.4922 10.7422C32.8151 10.5859 33.0625 10.3516 33.2344 10.0391C33.4115 9.72656 33.5 9.33333 33.5 8.85938C33.5 8.38542 33.401 7.9974 33.2031 7.69531C33.0052 7.38802 32.724 7.16146 32.3594 7.01562C32 6.86458 31.5755 6.78906 31.0859 6.78906H30.0547ZM44.3672 12H41.9922L42.0078 10.7734H44.3672C45.1797 10.7734 45.8568 10.6042 46.3984 10.2656C46.9401 9.92188 47.3464 9.44271 47.6172 8.82812C47.8932 8.20833 48.0312 7.48438 48.0312 6.65625V5.96094C48.0312 5.3099 47.9531 4.73177 47.7969 4.22656C47.6406 3.71615 47.4115 3.28646 47.1094 2.9375C46.8073 2.58333 46.4375 2.3151 46 2.13281C45.5677 1.95052 45.0703 1.85938 44.5078 1.85938H41.9453V0.625H44.5078C45.2526 0.625 45.9323 0.75 46.5469 1C47.1615 1.24479 47.6901 1.60156 48.1328 2.07031C48.5807 2.53385 48.9245 3.09635 49.1641 3.75781C49.4036 4.41406 49.5234 5.15365 49.5234 5.97656V6.65625C49.5234 7.47917 49.4036 8.22135 49.1641 8.88281C48.9245 9.53906 48.5781 10.099 48.125 10.5625C47.6771 11.026 47.1354 11.3828 46.5 11.6328C45.8698 11.8776 45.1589 12 44.3672 12ZM42.7969 0.625V12H41.2891V0.625H42.7969ZM55.0781 12.1562C54.4896 12.1562 53.9557 12.0573 53.4766 11.8594C53.0026 11.6562 52.5938 11.3724 52.25 11.0078C51.9115 10.6432 51.651 10.2109 51.4688 9.71094C51.2865 9.21094 51.1953 8.66406 51.1953 8.07031V7.74219C51.1953 7.05469 51.2969 6.44271 51.5 5.90625C51.7031 5.36458 51.9792 4.90625 52.3281 4.53125C52.6771 4.15625 53.0729 3.8724 53.5156 3.67969C53.9583 3.48698 54.4167 3.39062 54.8906 3.39062C55.4948 3.39062 56.0156 3.49479 56.4531 3.70312C56.8958 3.91146 57.2578 4.20312 57.5391 4.57812C57.8203 4.94792 58.0286 5.38542 58.1641 5.89062C58.2995 6.39062 58.3672 6.9375 58.3672 7.53125V8.17969H52.0547V7H56.9219V6.89062C56.901 6.51562 56.8229 6.15104 56.6875 5.79688C56.5573 5.44271 56.349 5.15104 56.0625 4.92188C55.776 4.69271 55.3854 4.57812 54.8906 4.57812C54.5625 4.57812 54.2604 4.64844 53.9844 4.78906C53.7083 4.92448 53.4714 5.1276 53.2734 5.39844C53.0755 5.66927 52.9219 6 52.8125 6.39062C52.7031 6.78125 52.6484 7.23177 52.6484 7.74219V8.07031C52.6484 8.47135 52.7031 8.84896 52.8125 9.20312C52.9271 9.55208 53.0911 9.85938 53.3047 10.125C53.5234 10.3906 53.7865 10.599 54.0938 10.75C54.4062 10.901 54.7604 10.9766 55.1562 10.9766C55.6667 10.9766 56.099 10.8724 56.4531 10.6641C56.8073 10.4557 57.1172 10.1771 57.3828 9.82812L58.2578 10.5234C58.0755 10.7995 57.8438 11.0625 57.5625 11.3125C57.2812 11.5625 56.9349 11.7656 56.5234 11.9219C56.1172 12.0781 55.6354 12.1562 55.0781 12.1562ZM61.625 0V12H60.1719V0H61.625ZM68.9297 10.5547V6.20312C68.9297 5.86979 68.862 5.58073 68.7266 5.33594C68.5964 5.08594 68.3984 4.89323 68.1328 4.75781C67.8672 4.6224 67.5391 4.55469 67.1484 4.55469C66.7839 4.55469 66.4635 4.61719 66.1875 4.74219C65.9167 4.86719 65.7031 5.03125 65.5469 5.23438C65.3958 5.4375 65.3203 5.65625 65.3203 5.89062H63.875C63.875 5.58854 63.9531 5.28906 64.1094 4.99219C64.2656 4.69531 64.4896 4.42708 64.7812 4.1875C65.0781 3.94271 65.4323 3.75 65.8438 3.60938C66.2604 3.46354 66.724 3.39062 67.2344 3.39062C67.849 3.39062 68.3906 3.49479 68.8594 3.70312C69.3333 3.91146 69.7031 4.22656 69.9688 4.64844C70.2396 5.0651 70.375 5.58854 70.375 6.21875V10.1562C70.375 10.4375 70.3984 10.737 70.4453 11.0547C70.4974 11.3724 70.5729 11.6458 70.6719 11.875V12H69.1641C69.0911 11.8333 69.0339 11.612 68.9922 11.3359C68.9505 11.0547 68.9297 10.7943 68.9297 10.5547ZM69.1797 6.875L69.1953 7.89062H67.7344C67.3229 7.89062 66.9557 7.92448 66.6328 7.99219C66.3099 8.05469 66.0391 8.15104 65.8203 8.28125C65.6016 8.41146 65.4349 8.57552 65.3203 8.77344C65.2057 8.96615 65.1484 9.19271 65.1484 9.45312C65.1484 9.71875 65.2083 9.96094 65.3281 10.1797C65.4479 10.3984 65.6276 10.5729 65.8672 10.7031C66.112 10.8281 66.4115 10.8906 66.7656 10.8906C67.2083 10.8906 67.599 10.7969 67.9375 10.6094C68.276 10.4219 68.5443 10.1927 68.7422 9.92188C68.9453 9.65104 69.0547 9.38802 69.0703 9.13281L69.6875 9.82812C69.651 10.0469 69.5521 10.2891 69.3906 10.5547C69.2292 10.8203 69.013 11.0755 68.7422 11.3203C68.4766 11.5599 68.1589 11.7604 67.7891 11.9219C67.4245 12.0781 67.013 12.1562 66.5547 12.1562C65.9818 12.1562 65.4792 12.0443 65.0469 11.8203C64.6198 11.5964 64.2865 11.2969 64.0469 10.9219C63.8125 10.5417 63.6953 10.1172 63.6953 9.64844C63.6953 9.19531 63.7839 8.79688 63.9609 8.45312C64.138 8.10417 64.3932 7.8151 64.7266 7.58594C65.0599 7.35156 65.4609 7.17448 65.9297 7.05469C66.3984 6.9349 66.9219 6.875 67.5 6.875H69.1797ZM74.7891 10.5L76.9609 3.54688H77.9141L77.7266 4.92969L75.5156 12H74.5859L74.7891 10.5ZM73.3281 3.54688L75.1797 10.5781L75.3125 12H74.3359L71.8828 3.54688H73.3281ZM79.9922 10.5234L81.7578 3.54688H83.1953L80.7422 12H79.7734L79.9922 10.5234ZM78.125 3.54688L80.25 10.3828L80.4922 12H79.5703L77.2969 4.91406L77.1094 3.54688H78.125ZM89.6641 10.5547V6.20312C89.6641 5.86979 89.5964 5.58073 89.4609 5.33594C89.3307 5.08594 89.1328 4.89323 88.8672 4.75781C88.6016 4.6224 88.2734 4.55469 87.8828 4.55469C87.5182 4.55469 87.1979 4.61719 86.9219 4.74219C86.651 4.86719 86.4375 5.03125 86.2812 5.23438C86.1302 5.4375 86.0547 5.65625 86.0547 5.89062H84.6094C84.6094 5.58854 84.6875 5.28906 84.8438 4.99219C85 4.69531 85.224 4.42708 85.5156 4.1875C85.8125 3.94271 86.1667 3.75 86.5781 3.60938C86.9948 3.46354 87.4583 3.39062 87.9688 3.39062C88.5833 3.39062 89.125 3.49479 89.5938 3.70312C90.0677 3.91146 90.4375 4.22656 90.7031 4.64844C90.974 5.0651 91.1094 5.58854 91.1094 6.21875V10.1562C91.1094 10.4375 91.1328 10.737 91.1797 11.0547C91.2318 11.3724 91.3073 11.6458 91.4062 11.875V12H89.8984C89.8255 11.8333 89.7682 11.612 89.7266 11.3359C89.6849 11.0547 89.6641 10.7943 89.6641 10.5547ZM89.9141 6.875L89.9297 7.89062H88.4688C88.0573 7.89062 87.6901 7.92448 87.3672 7.99219C87.0443 8.05469 86.7734 8.15104 86.5547 8.28125C86.3359 8.41146 86.1693 8.57552 86.0547 8.77344C85.9401 8.96615 85.8828 9.19271 85.8828 9.45312C85.8828 9.71875 85.9427 9.96094 86.0625 10.1797C86.1823 10.3984 86.362 10.5729 86.6016 10.7031C86.8464 10.8281 87.1458 10.8906 87.5 10.8906C87.9427 10.8906 88.3333 10.7969 88.6719 10.6094C89.0104 10.4219 89.2786 10.1927 89.4766 9.92188C89.6797 9.65104 89.7891 9.38802 89.8047 9.13281L90.4219 9.82812C90.3854 10.0469 90.2865 10.2891 90.125 10.5547C89.9635 10.8203 89.7474 11.0755 89.4766 11.3203C89.2109 11.5599 88.8932 11.7604 88.5234 11.9219C88.1589 12.0781 87.7474 12.1562 87.2891 12.1562C86.7161 12.1562 86.2135 12.0443 85.7812 11.8203C85.3542 11.5964 85.0208 11.2969 84.7812 10.9219C84.5469 10.5417 84.4297 10.1172 84.4297 9.64844C84.4297 9.19531 84.5182 8.79688 84.6953 8.45312C84.8724 8.10417 85.1276 7.8151 85.4609 7.58594C85.7943 7.35156 86.1953 7.17448 86.6641 7.05469C87.1328 6.9349 87.6562 6.875 88.2344 6.875H89.9141ZM94.8281 4.875V12H93.3828V3.54688H94.7891L94.8281 4.875ZM97.4688 3.5L97.4609 4.84375C97.3411 4.81771 97.2266 4.80208 97.1172 4.79688C97.013 4.78646 96.8932 4.78125 96.7578 4.78125C96.4245 4.78125 96.1302 4.83333 95.875 4.9375C95.6198 5.04167 95.4036 5.1875 95.2266 5.375C95.0495 5.5625 94.9089 5.78646 94.8047 6.04688C94.7057 6.30208 94.6406 6.58333 94.6094 6.89062L94.2031 7.125C94.2031 6.61458 94.2526 6.13542 94.3516 5.6875C94.4557 5.23958 94.6146 4.84375 94.8281 4.5C95.0417 4.15104 95.3125 3.88021 95.6406 3.6875C95.974 3.48958 96.3698 3.39062 96.8281 3.39062C96.9323 3.39062 97.0521 3.40365 97.1875 3.42969C97.3229 3.45052 97.4167 3.47396 97.4688 3.5ZM102.156 12.1562C101.568 12.1562 101.034 12.0573 100.555 11.8594C100.081 11.6562 99.6719 11.3724 99.3281 11.0078C98.9896 10.6432 98.7292 10.2109 98.5469 9.71094C98.3646 9.21094 98.2734 8.66406 98.2734 8.07031V7.74219C98.2734 7.05469 98.375 6.44271 98.5781 5.90625C98.7812 5.36458 99.0573 4.90625 99.4062 4.53125C99.7552 4.15625 100.151 3.8724 100.594 3.67969C101.036 3.48698 101.495 3.39062 101.969 3.39062C102.573 3.39062 103.094 3.49479 103.531 3.70312C103.974 3.91146 104.336 4.20312 104.617 4.57812C104.898 4.94792 105.107 5.38542 105.242 5.89062C105.378 6.39062 105.445 6.9375 105.445 7.53125V8.17969H99.1328V7H104V6.89062C103.979 6.51562 103.901 6.15104 103.766 5.79688C103.635 5.44271 103.427 5.15104 103.141 4.92188C102.854 4.69271 102.464 4.57812 101.969 4.57812C101.641 4.57812 101.339 4.64844 101.062 4.78906C100.786 4.92448 100.549 5.1276 100.352 5.39844C100.154 5.66927 100 6 99.8906 6.39062C99.7812 6.78125 99.7266 7.23177 99.7266 7.74219V8.07031C99.7266 8.47135 99.7812 8.84896 99.8906 9.20312C100.005 9.55208 100.169 9.85938 100.383 10.125C100.602 10.3906 100.865 10.599 101.172 10.75C101.484 10.901 101.839 10.9766 102.234 10.9766C102.745 10.9766 103.177 10.8724 103.531 10.6641C103.885 10.4557 104.195 10.1771 104.461 9.82812L105.336 10.5234C105.154 10.7995 104.922 11.0625 104.641 11.3125C104.359 11.5625 104.013 11.7656 103.602 11.9219C103.195 12.0781 102.714 12.1562 102.156 12.1562ZM115.531 1.63281L111.766 12H110.227L114.562 0.625H115.555L115.531 1.63281ZM118.688 12L114.914 1.63281L114.891 0.625H115.883L120.234 12H118.688ZM118.492 7.78906V9.02344H112.102V7.78906H118.492ZM123.719 10.6953L126.031 3.54688H127.508L124.469 12H123.5L123.719 10.6953ZM121.789 3.54688L124.172 10.7344L124.336 12H123.367L120.305 3.54688H121.789ZM132.297 12.1562C131.708 12.1562 131.174 12.0573 130.695 11.8594C130.221 11.6562 129.812 11.3724 129.469 11.0078C129.13 10.6432 128.87 10.2109 128.688 9.71094C128.505 9.21094 128.414 8.66406 128.414 8.07031V7.74219C128.414 7.05469 128.516 6.44271 128.719 5.90625C128.922 5.36458 129.198 4.90625 129.547 4.53125C129.896 4.15625 130.292 3.8724 130.734 3.67969C131.177 3.48698 131.635 3.39062 132.109 3.39062C132.714 3.39062 133.234 3.49479 133.672 3.70312C134.115 3.91146 134.477 4.20312 134.758 4.57812C135.039 4.94792 135.247 5.38542 135.383 5.89062C135.518 6.39062 135.586 6.9375 135.586 7.53125V8.17969H129.273V7H134.141V6.89062C134.12 6.51562 134.042 6.15104 133.906 5.79688C133.776 5.44271 133.568 5.15104 133.281 4.92188C132.995 4.69271 132.604 4.57812 132.109 4.57812C131.781 4.57812 131.479 4.64844 131.203 4.78906C130.927 4.92448 130.69 5.1276 130.492 5.39844C130.294 5.66927 130.141 6 130.031 6.39062C129.922 6.78125 129.867 7.23177 129.867 7.74219V8.07031C129.867 8.47135 129.922 8.84896 130.031 9.20312C130.146 9.55208 130.31 9.85938 130.523 10.125C130.742 10.3906 131.005 10.599 131.312 10.75C131.625 10.901 131.979 10.9766 132.375 10.9766C132.885 10.9766 133.318 10.8724 133.672 10.6641C134.026 10.4557 134.336 10.1771 134.602 9.82812L135.477 10.5234C135.294 10.7995 135.062 11.0625 134.781 11.3125C134.5 11.5625 134.154 11.7656 133.742 11.9219C133.336 12.0781 132.854 12.1562 132.297 12.1562ZM138.719 5.35156V12H137.273V3.54688H138.641L138.719 5.35156ZM138.375 7.45312L137.773 7.42969C137.779 6.85156 137.865 6.31771 138.031 5.82812C138.198 5.33333 138.432 4.90365 138.734 4.53906C139.036 4.17448 139.396 3.89323 139.812 3.69531C140.234 3.49219 140.701 3.39062 141.211 3.39062C141.628 3.39062 142.003 3.44792 142.336 3.5625C142.669 3.67188 142.953 3.84896 143.188 4.09375C143.427 4.33854 143.609 4.65625 143.734 5.04688C143.859 5.43229 143.922 5.90365 143.922 6.46094V12H142.469V6.44531C142.469 6.0026 142.404 5.64844 142.273 5.38281C142.143 5.11198 141.953 4.91667 141.703 4.79688C141.453 4.67188 141.146 4.60938 140.781 4.60938C140.422 4.60938 140.094 4.6849 139.797 4.83594C139.505 4.98698 139.253 5.19531 139.039 5.46094C138.831 5.72656 138.667 6.03125 138.547 6.375C138.432 6.71354 138.375 7.07292 138.375 7.45312ZM151.289 10.0469V3.54688H152.742V12H151.359L151.289 10.0469ZM151.562 8.26562L152.164 8.25C152.164 8.8125 152.104 9.33333 151.984 9.8125C151.87 10.2865 151.682 10.6979 151.422 11.0469C151.161 11.3958 150.82 11.6693 150.398 11.8672C149.977 12.0599 149.464 12.1562 148.859 12.1562C148.448 12.1562 148.07 12.0964 147.727 11.9766C147.388 11.8568 147.096 11.6719 146.852 11.4219C146.607 11.1719 146.417 10.8464 146.281 10.4453C146.151 10.0443 146.086 9.5625 146.086 9V3.54688H147.531V9.01562C147.531 9.39583 147.573 9.71094 147.656 9.96094C147.745 10.2057 147.862 10.401 148.008 10.5469C148.159 10.6875 148.326 10.7865 148.508 10.8438C148.695 10.901 148.888 10.9297 149.086 10.9297C149.701 10.9297 150.188 10.8125 150.547 10.5781C150.906 10.3385 151.164 10.0182 151.32 9.61719C151.482 9.21094 151.562 8.76042 151.562 8.26562ZM158.453 12.1562C157.865 12.1562 157.331 12.0573 156.852 11.8594C156.378 11.6562 155.969 11.3724 155.625 11.0078C155.286 10.6432 155.026 10.2109 154.844 9.71094C154.661 9.21094 154.57 8.66406 154.57 8.07031V7.74219C154.57 7.05469 154.672 6.44271 154.875 5.90625C155.078 5.36458 155.354 4.90625 155.703 4.53125C156.052 4.15625 156.448 3.8724 156.891 3.67969C157.333 3.48698 157.792 3.39062 158.266 3.39062C158.87 3.39062 159.391 3.49479 159.828 3.70312C160.271 3.91146 160.633 4.20312 160.914 4.57812C161.195 4.94792 161.404 5.38542 161.539 5.89062C161.674 6.39062 161.742 6.9375 161.742 7.53125V8.17969H155.43V7H160.297V6.89062C160.276 6.51562 160.198 6.15104 160.062 5.79688C159.932 5.44271 159.724 5.15104 159.438 4.92188C159.151 4.69271 158.76 4.57812 158.266 4.57812C157.938 4.57812 157.635 4.64844 157.359 4.78906C157.083 4.92448 156.846 5.1276 156.648 5.39844C156.451 5.66927 156.297 6 156.188 6.39062C156.078 6.78125 156.023 7.23177 156.023 7.74219V8.07031C156.023 8.47135 156.078 8.84896 156.188 9.20312C156.302 9.55208 156.466 9.85938 156.68 10.125C156.898 10.3906 157.161 10.599 157.469 10.75C157.781 10.901 158.135 10.9766 158.531 10.9766C159.042 10.9766 159.474 10.8724 159.828 10.6641C160.182 10.4557 160.492 10.1771 160.758 9.82812L161.633 10.5234C161.451 10.7995 161.219 11.0625 160.938 11.3125C160.656 11.5625 160.31 11.7656 159.898 11.9219C159.492 12.0781 159.01 12.1562 158.453 12.1562ZM164.742 10.2812V11.4453C164.742 11.9193 164.622 12.4193 164.383 12.9453C164.143 13.4766 163.807 13.9193 163.375 14.2734L162.555 13.7031C162.721 13.474 162.862 13.2396 162.977 13C163.091 12.7656 163.177 12.5208 163.234 12.2656C163.297 12.0156 163.328 11.75 163.328 11.4688V10.2812H164.742ZM176.836 9.125C176.836 8.85938 176.794 8.625 176.711 8.42188C176.633 8.21354 176.492 8.02604 176.289 7.85938C176.091 7.69271 175.815 7.53385 175.461 7.38281C175.112 7.23177 174.669 7.07812 174.133 6.92188C173.57 6.75521 173.062 6.57031 172.609 6.36719C172.156 6.15885 171.768 5.92188 171.445 5.65625C171.122 5.39062 170.875 5.08594 170.703 4.74219C170.531 4.39844 170.445 4.00521 170.445 3.5625C170.445 3.11979 170.536 2.71094 170.719 2.33594C170.901 1.96094 171.161 1.63542 171.5 1.35938C171.844 1.07812 172.253 0.859375 172.727 0.703125C173.201 0.546875 173.729 0.46875 174.312 0.46875C175.167 0.46875 175.891 0.632812 176.484 0.960938C177.083 1.28385 177.539 1.70833 177.852 2.23438C178.164 2.75521 178.32 3.3125 178.32 3.90625H176.82C176.82 3.47917 176.729 3.10156 176.547 2.77344C176.365 2.4401 176.089 2.17969 175.719 1.99219C175.349 1.79948 174.88 1.70312 174.312 1.70312C173.776 1.70312 173.333 1.78385 172.984 1.94531C172.635 2.10677 172.375 2.32552 172.203 2.60156C172.036 2.8776 171.953 3.19271 171.953 3.54688C171.953 3.78646 172.003 4.00521 172.102 4.20312C172.206 4.39583 172.365 4.57552 172.578 4.74219C172.797 4.90885 173.073 5.0625 173.406 5.20312C173.745 5.34375 174.148 5.47917 174.617 5.60938C175.263 5.79167 175.82 5.99479 176.289 6.21875C176.758 6.44271 177.143 6.69531 177.445 6.97656C177.753 7.2526 177.979 7.56771 178.125 7.92188C178.276 8.27083 178.352 8.66667 178.352 9.10938C178.352 9.57292 178.258 9.99219 178.07 10.3672C177.883 10.7422 177.615 11.0625 177.266 11.3281C176.917 11.5938 176.497 11.7995 176.008 11.9453C175.523 12.0859 174.982 12.1562 174.383 12.1562C173.857 12.1562 173.339 12.0833 172.828 11.9375C172.323 11.7917 171.862 11.5729 171.445 11.2812C171.034 10.9896 170.703 10.6302 170.453 10.2031C170.208 9.77083 170.086 9.27083 170.086 8.70312H171.586C171.586 9.09375 171.661 9.42969 171.812 9.71094C171.964 9.98698 172.169 10.2161 172.43 10.3984C172.695 10.5807 172.995 10.7161 173.328 10.8047C173.667 10.888 174.018 10.9297 174.383 10.9297C174.909 10.9297 175.354 10.8568 175.719 10.7109C176.083 10.5651 176.359 10.3568 176.547 10.0859C176.74 9.8151 176.836 9.49479 176.836 9.125ZM185.039 10.5547V6.20312C185.039 5.86979 184.971 5.58073 184.836 5.33594C184.706 5.08594 184.508 4.89323 184.242 4.75781C183.977 4.6224 183.648 4.55469 183.258 4.55469C182.893 4.55469 182.573 4.61719 182.297 4.74219C182.026 4.86719 181.812 5.03125 181.656 5.23438C181.505 5.4375 181.43 5.65625 181.43 5.89062H179.984C179.984 5.58854 180.062 5.28906 180.219 4.99219C180.375 4.69531 180.599 4.42708 180.891 4.1875C181.188 3.94271 181.542 3.75 181.953 3.60938C182.37 3.46354 182.833 3.39062 183.344 3.39062C183.958 3.39062 184.5 3.49479 184.969 3.70312C185.443 3.91146 185.812 4.22656 186.078 4.64844C186.349 5.0651 186.484 5.58854 186.484 6.21875V10.1562C186.484 10.4375 186.508 10.737 186.555 11.0547C186.607 11.3724 186.682 11.6458 186.781 11.875V12H185.273C185.201 11.8333 185.143 11.612 185.102 11.3359C185.06 11.0547 185.039 10.7943 185.039 10.5547ZM185.289 6.875L185.305 7.89062H183.844C183.432 7.89062 183.065 7.92448 182.742 7.99219C182.419 8.05469 182.148 8.15104 181.93 8.28125C181.711 8.41146 181.544 8.57552 181.43 8.77344C181.315 8.96615 181.258 9.19271 181.258 9.45312C181.258 9.71875 181.318 9.96094 181.438 10.1797C181.557 10.3984 181.737 10.5729 181.977 10.7031C182.221 10.8281 182.521 10.8906 182.875 10.8906C183.318 10.8906 183.708 10.7969 184.047 10.6094C184.385 10.4219 184.654 10.1927 184.852 9.92188C185.055 9.65104 185.164 9.38802 185.18 9.13281L185.797 9.82812C185.76 10.0469 185.661 10.2891 185.5 10.5547C185.339 10.8203 185.122 11.0755 184.852 11.3203C184.586 11.5599 184.268 11.7604 183.898 11.9219C183.534 12.0781 183.122 12.1562 182.664 12.1562C182.091 12.1562 181.589 12.0443 181.156 11.8203C180.729 11.5964 180.396 11.2969 180.156 10.9219C179.922 10.5417 179.805 10.1172 179.805 9.64844C179.805 9.19531 179.893 8.79688 180.07 8.45312C180.247 8.10417 180.503 7.8151 180.836 7.58594C181.169 7.35156 181.57 7.17448 182.039 7.05469C182.508 6.9349 183.031 6.875 183.609 6.875H185.289ZM190.203 5.35156V12H188.758V3.54688H190.125L190.203 5.35156ZM189.859 7.45312L189.258 7.42969C189.263 6.85156 189.349 6.31771 189.516 5.82812C189.682 5.33333 189.917 4.90365 190.219 4.53906C190.521 4.17448 190.88 3.89323 191.297 3.69531C191.719 3.49219 192.185 3.39062 192.695 3.39062C193.112 3.39062 193.487 3.44792 193.82 3.5625C194.154 3.67188 194.438 3.84896 194.672 4.09375C194.911 4.33854 195.094 4.65625 195.219 5.04688C195.344 5.43229 195.406 5.90365 195.406 6.46094V12H193.953V6.44531C193.953 6.0026 193.888 5.64844 193.758 5.38281C193.628 5.11198 193.438 4.91667 193.188 4.79688C192.938 4.67188 192.63 4.60938 192.266 4.60938C191.906 4.60938 191.578 4.6849 191.281 4.83594C190.99 4.98698 190.737 5.19531 190.523 5.46094C190.315 5.72656 190.151 6.03125 190.031 6.375C189.917 6.71354 189.859 7.07292 189.859 7.45312ZM203.297 0.625V12H201.789V0.625H203.297ZM208.062 5.74219V6.97656H202.969V5.74219H208.062ZM208.836 0.625V1.85938H202.969V0.625H208.836ZM211.656 4.875V12H210.211V3.54688H211.617L211.656 4.875ZM214.297 3.5L214.289 4.84375C214.169 4.81771 214.055 4.80208 213.945 4.79688C213.841 4.78646 213.721 4.78125 213.586 4.78125C213.253 4.78125 212.958 4.83333 212.703 4.9375C212.448 5.04167 212.232 5.1875 212.055 5.375C211.878 5.5625 211.737 5.78646 211.633 6.04688C211.534 6.30208 211.469 6.58333 211.438 6.89062L211.031 7.125C211.031 6.61458 211.081 6.13542 211.18 5.6875C211.284 5.23958 211.443 4.84375 211.656 4.5C211.87 4.15104 212.141 3.88021 212.469 3.6875C212.802 3.48958 213.198 3.39062 213.656 3.39062C213.76 3.39062 213.88 3.40365 214.016 3.42969C214.151 3.45052 214.245 3.47396 214.297 3.5ZM220.305 10.5547V6.20312C220.305 5.86979 220.237 5.58073 220.102 5.33594C219.971 5.08594 219.773 4.89323 219.508 4.75781C219.242 4.6224 218.914 4.55469 218.523 4.55469C218.159 4.55469 217.839 4.61719 217.562 4.74219C217.292 4.86719 217.078 5.03125 216.922 5.23438C216.771 5.4375 216.695 5.65625 216.695 5.89062H215.25C215.25 5.58854 215.328 5.28906 215.484 4.99219C215.641 4.69531 215.865 4.42708 216.156 4.1875C216.453 3.94271 216.807 3.75 217.219 3.60938C217.635 3.46354 218.099 3.39062 218.609 3.39062C219.224 3.39062 219.766 3.49479 220.234 3.70312C220.708 3.91146 221.078 4.22656 221.344 4.64844C221.615 5.0651 221.75 5.58854 221.75 6.21875V10.1562C221.75 10.4375 221.773 10.737 221.82 11.0547C221.872 11.3724 221.948 11.6458 222.047 11.875V12H220.539C220.466 11.8333 220.409 11.612 220.367 11.3359C220.326 11.0547 220.305 10.7943 220.305 10.5547ZM220.555 6.875L220.57 7.89062H219.109C218.698 7.89062 218.331 7.92448 218.008 7.99219C217.685 8.05469 217.414 8.15104 217.195 8.28125C216.977 8.41146 216.81 8.57552 216.695 8.77344C216.581 8.96615 216.523 9.19271 216.523 9.45312C216.523 9.71875 216.583 9.96094 216.703 10.1797C216.823 10.3984 217.003 10.5729 217.242 10.7031C217.487 10.8281 217.786 10.8906 218.141 10.8906C218.583 10.8906 218.974 10.7969 219.312 10.6094C219.651 10.4219 219.919 10.1927 220.117 9.92188C220.32 9.65104 220.43 9.38802 220.445 9.13281L221.062 9.82812C221.026 10.0469 220.927 10.2891 220.766 10.5547C220.604 10.8203 220.388 11.0755 220.117 11.3203C219.852 11.5599 219.534 11.7604 219.164 11.9219C218.799 12.0781 218.388 12.1562 217.93 12.1562C217.357 12.1562 216.854 12.0443 216.422 11.8203C215.995 11.5964 215.661 11.2969 215.422 10.9219C215.188 10.5417 215.07 10.1172 215.07 9.64844C215.07 9.19531 215.159 8.79688 215.336 8.45312C215.513 8.10417 215.768 7.8151 216.102 7.58594C216.435 7.35156 216.836 7.17448 217.305 7.05469C217.773 6.9349 218.297 6.875 218.875 6.875H220.555ZM225.469 5.35156V12H224.023V3.54688H225.391L225.469 5.35156ZM225.125 7.45312L224.523 7.42969C224.529 6.85156 224.615 6.31771 224.781 5.82812C224.948 5.33333 225.182 4.90365 225.484 4.53906C225.786 4.17448 226.146 3.89323 226.562 3.69531C226.984 3.49219 227.451 3.39062 227.961 3.39062C228.378 3.39062 228.753 3.44792 229.086 3.5625C229.419 3.67188 229.703 3.84896 229.938 4.09375C230.177 4.33854 230.359 4.65625 230.484 5.04688C230.609 5.43229 230.672 5.90365 230.672 6.46094V12H229.219V6.44531C229.219 6.0026 229.154 5.64844 229.023 5.38281C228.893 5.11198 228.703 4.91667 228.453 4.79688C228.203 4.67188 227.896 4.60938 227.531 4.60938C227.172 4.60938 226.844 4.6849 226.547 4.83594C226.255 4.98698 226.003 5.19531 225.789 5.46094C225.581 5.72656 225.417 6.03125 225.297 6.375C225.182 6.71354 225.125 7.07292 225.125 7.45312ZM236.25 10.9688C236.594 10.9688 236.911 10.8984 237.203 10.7578C237.495 10.6172 237.734 10.4245 237.922 10.1797C238.109 9.92969 238.216 9.64583 238.242 9.32812H239.617C239.591 9.82812 239.422 10.2943 239.109 10.7266C238.802 11.1536 238.398 11.5 237.898 11.7656C237.398 12.026 236.849 12.1562 236.25 12.1562C235.615 12.1562 235.06 12.0443 234.586 11.8203C234.117 11.5964 233.727 11.2891 233.414 10.8984C233.107 10.5078 232.875 10.0599 232.719 9.55469C232.568 9.04427 232.492 8.50521 232.492 7.9375V7.60938C232.492 7.04167 232.568 6.50521 232.719 6C232.875 5.48958 233.107 5.03906 233.414 4.64844C233.727 4.25781 234.117 3.95052 234.586 3.72656C235.06 3.5026 235.615 3.39062 236.25 3.39062C236.911 3.39062 237.49 3.52604 237.984 3.79688C238.479 4.0625 238.867 4.42708 239.148 4.89062C239.435 5.34896 239.591 5.86979 239.617 6.45312H238.242C238.216 6.10417 238.117 5.78906 237.945 5.50781C237.779 5.22656 237.549 5.0026 237.258 4.83594C236.971 4.66406 236.635 4.57812 236.25 4.57812C235.807 4.57812 235.435 4.66667 235.133 4.84375C234.836 5.01562 234.599 5.25 234.422 5.54688C234.25 5.83854 234.125 6.16406 234.047 6.52344C233.974 6.8776 233.938 7.23958 233.938 7.60938V7.9375C233.938 8.30729 233.974 8.67188 234.047 9.03125C234.12 9.39062 234.242 9.71615 234.414 10.0078C234.591 10.2995 234.828 10.5339 235.125 10.7109C235.427 10.8828 235.802 10.9688 236.25 10.9688ZM242.812 3.54688V12H241.359V3.54688H242.812ZM241.25 1.30469C241.25 1.07031 241.32 0.872396 241.461 0.710938C241.607 0.549479 241.82 0.46875 242.102 0.46875C242.378 0.46875 242.589 0.549479 242.734 0.710938C242.885 0.872396 242.961 1.07031 242.961 1.30469C242.961 1.52865 242.885 1.72135 242.734 1.88281C242.589 2.03906 242.378 2.11719 242.102 2.11719C241.82 2.11719 241.607 2.03906 241.461 1.88281C241.32 1.72135 241.25 1.52865 241.25 1.30469ZM250.055 9.75781C250.055 9.54948 250.008 9.35677 249.914 9.17969C249.826 8.9974 249.641 8.83333 249.359 8.6875C249.083 8.53646 248.667 8.40625 248.109 8.29688C247.641 8.19792 247.216 8.08073 246.836 7.94531C246.461 7.8099 246.141 7.64583 245.875 7.45312C245.615 7.26042 245.414 7.03385 245.273 6.77344C245.133 6.51302 245.062 6.20833 245.062 5.85938C245.062 5.52604 245.135 5.21094 245.281 4.91406C245.432 4.61719 245.643 4.35417 245.914 4.125C246.19 3.89583 246.521 3.71615 246.906 3.58594C247.292 3.45573 247.721 3.39062 248.195 3.39062C248.872 3.39062 249.451 3.51042 249.93 3.75C250.409 3.98958 250.776 4.3099 251.031 4.71094C251.286 5.10677 251.414 5.54688 251.414 6.03125H249.969C249.969 5.79688 249.898 5.57031 249.758 5.35156C249.622 5.1276 249.422 4.94271 249.156 4.79688C248.896 4.65104 248.576 4.57812 248.195 4.57812C247.794 4.57812 247.469 4.64062 247.219 4.76562C246.974 4.88542 246.794 5.03906 246.68 5.22656C246.57 5.41406 246.516 5.61198 246.516 5.82031C246.516 5.97656 246.542 6.11719 246.594 6.24219C246.651 6.36198 246.75 6.47396 246.891 6.57812C247.031 6.67708 247.229 6.77083 247.484 6.85938C247.74 6.94792 248.065 7.03646 248.461 7.125C249.154 7.28125 249.724 7.46875 250.172 7.6875C250.62 7.90625 250.953 8.17448 251.172 8.49219C251.391 8.8099 251.5 9.19531 251.5 9.64844C251.5 10.0182 251.422 10.3568 251.266 10.6641C251.115 10.9714 250.893 11.237 250.602 11.4609C250.315 11.6797 249.971 11.8516 249.57 11.9766C249.174 12.0964 248.729 12.1562 248.234 12.1562C247.49 12.1562 246.859 12.0234 246.344 11.7578C245.828 11.4922 245.438 11.1484 245.172 10.7266C244.906 10.3047 244.773 9.85938 244.773 9.39062H246.227C246.247 9.78646 246.362 10.1016 246.57 10.3359C246.779 10.5651 247.034 10.7292 247.336 10.8281C247.638 10.9219 247.938 10.9688 248.234 10.9688C248.63 10.9688 248.961 10.9167 249.227 10.8125C249.497 10.7083 249.703 10.5651 249.844 10.3828C249.984 10.2005 250.055 9.99219 250.055 9.75781ZM256.781 10.9688C257.125 10.9688 257.443 10.8984 257.734 10.7578C258.026 10.6172 258.266 10.4245 258.453 10.1797C258.641 9.92969 258.747 9.64583 258.773 9.32812H260.148C260.122 9.82812 259.953 10.2943 259.641 10.7266C259.333 11.1536 258.93 11.5 258.43 11.7656C257.93 12.026 257.38 12.1562 256.781 12.1562C256.146 12.1562 255.591 12.0443 255.117 11.8203C254.648 11.5964 254.258 11.2891 253.945 10.8984C253.638 10.5078 253.406 10.0599 253.25 9.55469C253.099 9.04427 253.023 8.50521 253.023 7.9375V7.60938C253.023 7.04167 253.099 6.50521 253.25 6C253.406 5.48958 253.638 5.03906 253.945 4.64844C254.258 4.25781 254.648 3.95052 255.117 3.72656C255.591 3.5026 256.146 3.39062 256.781 3.39062C257.443 3.39062 258.021 3.52604 258.516 3.79688C259.01 4.0625 259.398 4.42708 259.68 4.89062C259.966 5.34896 260.122 5.86979 260.148 6.45312H258.773C258.747 6.10417 258.648 5.78906 258.477 5.50781C258.31 5.22656 258.081 5.0026 257.789 4.83594C257.503 4.66406 257.167 4.57812 256.781 4.57812C256.339 4.57812 255.966 4.66667 255.664 4.84375C255.367 5.01562 255.13 5.25 254.953 5.54688C254.781 5.83854 254.656 6.16406 254.578 6.52344C254.505 6.8776 254.469 7.23958 254.469 7.60938V7.9375C254.469 8.30729 254.505 8.67188 254.578 9.03125C254.651 9.39062 254.773 9.71615 254.945 10.0078C255.122 10.2995 255.359 10.5339 255.656 10.7109C255.958 10.8828 256.333 10.9688 256.781 10.9688ZM261.391 7.86719V7.6875C261.391 7.07812 261.479 6.51302 261.656 5.99219C261.833 5.46615 262.089 5.01042 262.422 4.625C262.755 4.23438 263.159 3.93229 263.633 3.71875C264.107 3.5 264.638 3.39062 265.227 3.39062C265.82 3.39062 266.354 3.5 266.828 3.71875C267.307 3.93229 267.714 4.23438 268.047 4.625C268.385 5.01042 268.643 5.46615 268.82 5.99219C268.997 6.51302 269.086 7.07812 269.086 7.6875V7.86719C269.086 8.47656 268.997 9.04167 268.82 9.5625C268.643 10.0833 268.385 10.5391 268.047 10.9297C267.714 11.3151 267.31 11.6172 266.836 11.8359C266.367 12.0495 265.836 12.1562 265.242 12.1562C264.648 12.1562 264.115 12.0495 263.641 11.8359C263.167 11.6172 262.76 11.3151 262.422 10.9297C262.089 10.5391 261.833 10.0833 261.656 9.5625C261.479 9.04167 261.391 8.47656 261.391 7.86719ZM262.836 7.6875V7.86719C262.836 8.28906 262.885 8.6875 262.984 9.0625C263.083 9.43229 263.232 9.76042 263.43 10.0469C263.633 10.3333 263.885 10.5599 264.188 10.7266C264.49 10.888 264.841 10.9688 265.242 10.9688C265.638 10.9688 265.984 10.888 266.281 10.7266C266.583 10.5599 266.833 10.3333 267.031 10.0469C267.229 9.76042 267.378 9.43229 267.477 9.0625C267.581 8.6875 267.633 8.28906 267.633 7.86719V7.6875C267.633 7.27083 267.581 6.8776 267.477 6.50781C267.378 6.13281 267.227 5.80208 267.023 5.51562C266.826 5.22396 266.576 4.99479 266.273 4.82812C265.977 4.66146 265.628 4.57812 265.227 4.57812C264.831 4.57812 264.482 4.66146 264.18 4.82812C263.883 4.99479 263.633 5.22396 263.43 5.51562C263.232 5.80208 263.083 6.13281 262.984 6.50781C262.885 6.8776 262.836 7.27083 262.836 7.6875ZM272.211 10.2812V11.4453C272.211 11.9193 272.091 12.4193 271.852 12.9453C271.612 13.4766 271.276 13.9193 270.844 14.2734L270.023 13.7031C270.19 13.474 270.331 13.2396 270.445 13C270.56 12.7656 270.646 12.5208 270.703 12.2656C270.766 12.0156 270.797 11.75 270.797 11.4688V10.2812H272.211ZM284.75 0.625H286.25V8.32031C286.25 9.17448 286.06 9.88542 285.68 10.4531C285.299 11.0208 284.794 11.4479 284.164 11.7344C283.539 12.0156 282.859 12.1562 282.125 12.1562C281.354 12.1562 280.656 12.0156 280.031 11.7344C279.411 11.4479 278.919 11.0208 278.555 10.4531C278.195 9.88542 278.016 9.17448 278.016 8.32031V0.625H279.508V8.32031C279.508 8.91406 279.617 9.40365 279.836 9.78906C280.055 10.1745 280.359 10.4609 280.75 10.6484C281.146 10.8359 281.604 10.9297 282.125 10.9297C282.651 10.9297 283.109 10.8359 283.5 10.6484C283.896 10.4609 284.203 10.1745 284.422 9.78906C284.641 9.40365 284.75 8.91406 284.75 8.32031V0.625ZM294.68 9.125C294.68 8.85938 294.638 8.625 294.555 8.42188C294.477 8.21354 294.336 8.02604 294.133 7.85938C293.935 7.69271 293.659 7.53385 293.305 7.38281C292.956 7.23177 292.513 7.07812 291.977 6.92188C291.414 6.75521 290.906 6.57031 290.453 6.36719C290 6.15885 289.612 5.92188 289.289 5.65625C288.966 5.39062 288.719 5.08594 288.547 4.74219C288.375 4.39844 288.289 4.00521 288.289 3.5625C288.289 3.11979 288.38 2.71094 288.562 2.33594C288.745 1.96094 289.005 1.63542 289.344 1.35938C289.688 1.07812 290.096 0.859375 290.57 0.703125C291.044 0.546875 291.573 0.46875 292.156 0.46875C293.01 0.46875 293.734 0.632812 294.328 0.960938C294.927 1.28385 295.383 1.70833 295.695 2.23438C296.008 2.75521 296.164 3.3125 296.164 3.90625H294.664C294.664 3.47917 294.573 3.10156 294.391 2.77344C294.208 2.4401 293.932 2.17969 293.562 1.99219C293.193 1.79948 292.724 1.70312 292.156 1.70312C291.62 1.70312 291.177 1.78385 290.828 1.94531C290.479 2.10677 290.219 2.32552 290.047 2.60156C289.88 2.8776 289.797 3.19271 289.797 3.54688C289.797 3.78646 289.846 4.00521 289.945 4.20312C290.049 4.39583 290.208 4.57552 290.422 4.74219C290.641 4.90885 290.917 5.0625 291.25 5.20312C291.589 5.34375 291.992 5.47917 292.461 5.60938C293.107 5.79167 293.664 5.99479 294.133 6.21875C294.602 6.44271 294.987 6.69531 295.289 6.97656C295.596 7.2526 295.823 7.56771 295.969 7.92188C296.12 8.27083 296.195 8.66667 296.195 9.10938C296.195 9.57292 296.102 9.99219 295.914 10.3672C295.727 10.7422 295.458 11.0625 295.109 11.3281C294.76 11.5938 294.341 11.7995 293.852 11.9453C293.367 12.0859 292.826 12.1562 292.227 12.1562C291.701 12.1562 291.182 12.0833 290.672 11.9375C290.167 11.7917 289.706 11.5729 289.289 11.2812C288.878 10.9896 288.547 10.6302 288.297 10.2031C288.052 9.77083 287.93 9.27083 287.93 8.70312H289.43C289.43 9.09375 289.505 9.42969 289.656 9.71094C289.807 9.98698 290.013 10.2161 290.273 10.3984C290.539 10.5807 290.839 10.7161 291.172 10.8047C291.51 10.888 291.862 10.9297 292.227 10.9297C292.753 10.9297 293.198 10.8568 293.562 10.7109C293.927 10.5651 294.203 10.3568 294.391 10.0859C294.583 9.8151 294.68 9.49479 294.68 9.125ZM302.328 1.63281L298.562 12H297.023L301.359 0.625H302.352L302.328 1.63281ZM305.484 12L301.711 1.63281L301.688 0.625H302.68L307.031 12H305.484ZM305.289 7.78906V9.02344H298.898V7.78906H305.289Z" fill="#666666"/>
</svg>
